<?xml version="1.0" encoding="utf-8" standalone="no"?>
<!DOCTYPE svg PUBLIC "-//W3C//DTD SVG 1.1//EN"
  "http://www.w3.org/Graphics/SVG/1.1/DTD/svg11.dtd">
<!-- Created with matplotlib (http://matplotlib.org/) -->
<svg height="324pt" version="1.1" viewBox="0 0 432 324" width="432pt" xmlns="http://www.w3.org/2000/svg" xmlns:xlink="http://www.w3.org/1999/xlink">
 <defs>
  <style type="text/css">
*{stroke-linecap:butt;stroke-linejoin:round;}
  </style>
 </defs>
 <g id="figure_1">
  <g id="patch_1">
   <path d="M 0 324 
L 432 324 
L 432 0 
L 0 0 
z
" style="fill:#ffffff;"/>
  </g>
  <g id="axes_1">
   <g id="patch_2">
    <path d="M 54 283.5 
L 388.8 283.5 
L 388.8 38.88 
L 54 38.88 
z
" style="fill:#ffffff;"/>
   </g>
   <g id="matplotlib.axis_1">
    <g id="xtick_1">
     <g id="line2d_1">
      <defs>
       <path d="M 0 0 
L 0 3.5 
" id="m3dfb283cd6" style="stroke:#000000;stroke-width:0.8;"/>
      </defs>
      <g>
       <use style="stroke:#000000;stroke-width:0.8;" x="92.487769" xlink:href="#m3dfb283cd6" y="283.5"/>
      </g>
     </g>
     <g id="text_1">
      <!-- 2006 -->
      <defs>
       <path d="M 41.703125 15.453125 
L 39.90625 15.453125 
C 38.90625 8.375 38.09375 7.171875 37.703125 6.5625 
C 37.203125 5.765625 30 5.765625 28.59375 5.765625 
L 9.40625 5.765625 
C 13 9.671875 20 16.75 28.5 24.953125 
C 34.59375 30.734375 41.703125 37.53125 41.703125 47.421875 
C 41.703125 59.21875 32.296875 66 21.796875 66 
C 10.796875 66 4.09375 56.3125 4.09375 47.34375 
C 4.09375 43.4375 7 42.9375 8.203125 42.9375 
C 9.203125 42.9375 12.203125 43.546875 12.203125 47.03125 
C 12.203125 50.109375 9.59375 51 8.203125 51 
C 7.59375 51 7 50.90625 6.59375 50.703125 
C 8.5 59.21875 14.296875 63.40625 20.40625 63.40625 
C 29.09375 63.40625 34.796875 56.515625 34.796875 47.421875 
C 34.796875 38.734375 29.703125 31.25 24 24.75 
L 4.09375 2.28125 
L 4.09375 0 
L 39.296875 0 
z
" id="CMR17-50"/>
       <path d="M 42 31.640625 
C 42 37.75 41.90625 48.125 37.703125 56.109375 
C 34 63.109375 28.09375 65.59375 22.90625 65.59375 
C 18.09375 65.59375 12 63.40625 8.203125 56.203125 
C 4.203125 48.71875 3.796875 39.4375 3.796875 31.640625 
C 3.796875 25.953125 3.90625 17.28125 7 9.671875 
C 11.296875 -0.609375 19 -2 22.90625 -2 
C 27.5 -2 34.5 -0.109375 38.59375 9.375 
C 41.59375 16.28125 42 24.359375 42 31.640625 
z
M 22.90625 -0.40625 
C 16.5 -0.40625 12.703125 5.078125 11.296875 12.6875 
C 10.203125 18.5625 10.203125 27.15625 10.203125 32.75 
C 10.203125 40.4375 10.203125 46.828125 11.5 52.921875 
C 13.40625 61.390625 19 64 22.90625 64 
C 27 64 32.296875 61.296875 34.203125 53.125 
C 35.5 47.4375 35.59375 40.734375 35.59375 32.75 
C 35.59375 26.25 35.59375 18.265625 34.40625 12.375 
C 32.296875 1.484375 26.40625 -0.40625 22.90625 -0.40625 
z
" id="CMR17-48"/>
       <path d="M 10.59375 34 
C 10.59375 57.65625 21.796875 63 28.296875 63 
C 30.40625 63 35.5 62.640625 37.5 59 
C 35.90625 59 32.90625 59 32.90625 55.515625 
C 32.90625 52.828125 35.09375 51.921875 36.5 51.921875 
C 37.40625 51.921875 40.09375 52.3125 40.09375 55.625 
C 40.09375 61.78125 35.09375 65.296875 28.203125 65.296875 
C 16.296875 65.296875 3.796875 52.96875 3.796875 31 
C 3.796875 3.953125 15.09375 -2 23.09375 -2 
C 32.796875 -2 42 6.671875 42 20.046875 
C 42 32.515625 33.90625 41.59375 23.703125 41.59375 
C 17.59375 41.59375 13.09375 37.609375 10.59375 30.625 
z
M 23.09375 0.390625 
C 10.796875 0.390625 10.796875 18.75 10.796875 22.4375 
C 10.796875 29.625 14.203125 40 23.5 40 
C 25.203125 40 30.09375 40 33.40625 33.125 
C 35.203125 29.21875 35.203125 25.140625 35.203125 20.140625 
C 35.203125 14.75 35.203125 10.78125 33.09375 6.78125 
C 30.90625 2.671875 27.703125 0.390625 23.09375 0.390625 
z
" id="CMR17-54"/>
      </defs>
      <g transform="translate(82.525099 299.518498)scale(0.1 -0.1)">
       <use transform="scale(0.996264)" xlink:href="#CMR17-50"/>
       <use transform="translate(45.690477 0)scale(0.996264)" xlink:href="#CMR17-48"/>
       <use transform="translate(91.380954 0)scale(0.996264)" xlink:href="#CMR17-48"/>
       <use transform="translate(137.071431 0)scale(0.996264)" xlink:href="#CMR17-54"/>
      </g>
     </g>
    </g>
    <g id="xtick_2">
     <g id="line2d_2">
      <g>
       <use style="stroke:#000000;stroke-width:0.8;" x="139.283358" xlink:href="#m3dfb283cd6" y="283.5"/>
      </g>
     </g>
     <g id="text_2">
      <!-- 2008 -->
      <defs>
       <path d="M 27.203125 35.375 
C 33.5 38.546875 39.90625 43.328125 39.90625 50.984375 
C 39.90625 60.015625 31.09375 65.296875 23 65.296875 
C 13.90625 65.296875 5.90625 58.734375 5.90625 49.6875 
C 5.90625 47.203125 6.5 42.921875 10.40625 39.140625 
C 11.40625 38.15625 15.59375 35.171875 18.296875 33.28125 
C 13.796875 30.984375 3.296875 25.53125 3.296875 14.59375 
C 3.296875 4.359375 13.09375 -2 22.796875 -2 
C 33.5 -2 42.5 5.65625 42.5 15.78125 
C 42.5 24.84375 36.40625 29.015625 32.40625 31.703125 
z
M 14.09375 44.09375 
C 13.296875 44.59375 9.296875 47.671875 9.296875 52.359375 
C 9.296875 58.421875 15.59375 63 22.796875 63 
C 30.703125 63 36.5 57.4375 36.5 50.96875 
C 36.5 41.703125 26.09375 36.421875 25.59375 36.421875 
C 25.5 36.421875 25.40625 36.421875 24.59375 37.03125 
z
M 32.5 23.734375 
C 34 22.640625 38.796875 19.375 38.796875 13.296875 
C 38.796875 5.953125 31.40625 0.390625 23 0.390625 
C 13.90625 0.390625 7 6.84375 7 14.6875 
C 7 22.546875 13.09375 29.09375 20 32.1875 
z
" id="CMR17-56"/>
      </defs>
      <g transform="translate(129.320687 299.518498)scale(0.1 -0.1)">
       <use transform="scale(0.996264)" xlink:href="#CMR17-50"/>
       <use transform="translate(45.690477 0)scale(0.996264)" xlink:href="#CMR17-48"/>
       <use transform="translate(91.380954 0)scale(0.996264)" xlink:href="#CMR17-48"/>
       <use transform="translate(137.071431 0)scale(0.996264)" xlink:href="#CMR17-56"/>
      </g>
     </g>
    </g>
    <g id="xtick_3">
     <g id="line2d_3">
      <g>
       <use style="stroke:#000000;stroke-width:0.8;" x="186.14305" xlink:href="#m3dfb283cd6" y="283.5"/>
      </g>
     </g>
     <g id="text_3">
      <!-- 2010 -->
      <defs>
       <path d="M 26.59375 63.40625 
C 26.59375 65.5 26.5 65.5 25.09375 65.5 
C 21.203125 61.1875 15.296875 59.796875 9.703125 59.796875 
C 9.40625 59.796875 8.90625 59.796875 8.796875 59.5 
C 8.703125 59.296875 8.703125 59.09375 8.703125 57 
C 11.796875 57 17 57.59375 21 59.984375 
L 21 7.203125 
C 21 3.6875 20.796875 2.5 12.203125 2.5 
L 9.203125 2.5 
L 9.203125 0 
C 14 0 19 0 23.796875 0 
C 28.59375 0 33.59375 0 38.40625 0 
L 38.40625 2.5 
L 35.40625 2.5 
C 26.796875 2.5 26.59375 3.59375 26.59375 7.15625 
z
" id="CMR17-49"/>
      </defs>
      <g transform="translate(176.180379 299.518498)scale(0.1 -0.1)">
       <use transform="scale(0.996264)" xlink:href="#CMR17-50"/>
       <use transform="translate(45.690477 0)scale(0.996264)" xlink:href="#CMR17-48"/>
       <use transform="translate(91.380954 0)scale(0.996264)" xlink:href="#CMR17-49"/>
       <use transform="translate(137.071431 0)scale(0.996264)" xlink:href="#CMR17-48"/>
      </g>
     </g>
    </g>
    <g id="xtick_4">
     <g id="line2d_4">
      <g>
       <use style="stroke:#000000;stroke-width:0.8;" x="232.938638" xlink:href="#m3dfb283cd6" y="283.5"/>
      </g>
     </g>
     <g id="text_4">
      <!-- 2012 -->
      <g transform="translate(222.975968 299.518498)scale(0.1 -0.1)">
       <use transform="scale(0.996264)" xlink:href="#CMR17-50"/>
       <use transform="translate(45.690477 0)scale(0.996264)" xlink:href="#CMR17-48"/>
       <use transform="translate(91.380954 0)scale(0.996264)" xlink:href="#CMR17-49"/>
       <use transform="translate(137.071431 0)scale(0.996264)" xlink:href="#CMR17-50"/>
      </g>
     </g>
    </g>
    <g id="xtick_5">
     <g id="line2d_5">
      <g>
       <use style="stroke:#000000;stroke-width:0.8;" x="279.79833" xlink:href="#m3dfb283cd6" y="283.5"/>
      </g>
     </g>
     <g id="text_5">
      <!-- 2014 -->
      <defs>
       <path d="M 33.59375 64.40625 
C 33.59375 66.5 33.5 66.5 31.703125 66.5 
L 2 19.59375 
L 2 17 
L 27.796875 17 
L 27.796875 7.140625 
C 27.796875 3.5 27.59375 2.5 20.59375 2.5 
L 18.703125 2.5 
L 18.703125 0 
C 21.90625 0 27.296875 0 30.703125 0 
C 34.09375 0 39.5 0 42.703125 0 
L 42.703125 2.5 
L 40.796875 2.5 
C 33.796875 2.5 33.59375 3.5 33.59375 7.140625 
L 33.59375 17 
L 43.796875 17 
L 43.796875 19.59375 
L 33.59375 19.59375 
z
M 28.09375 57.859375 
L 28.09375 19.59375 
L 4 19.59375 
z
" id="CMR17-52"/>
      </defs>
      <g transform="translate(269.83566 299.518498)scale(0.1 -0.1)">
       <use transform="scale(0.996264)" xlink:href="#CMR17-50"/>
       <use transform="translate(45.690477 0)scale(0.996264)" xlink:href="#CMR17-48"/>
       <use transform="translate(91.380954 0)scale(0.996264)" xlink:href="#CMR17-49"/>
       <use transform="translate(137.071431 0)scale(0.996264)" xlink:href="#CMR17-52"/>
      </g>
     </g>
    </g>
    <g id="xtick_6">
     <g id="line2d_6">
      <g>
       <use style="stroke:#000000;stroke-width:0.8;" x="326.593919" xlink:href="#m3dfb283cd6" y="283.5"/>
      </g>
     </g>
     <g id="text_6">
      <!-- 2016 -->
      <g transform="translate(316.631248 299.518498)scale(0.1 -0.1)">
       <use transform="scale(0.996264)" xlink:href="#CMR17-50"/>
       <use transform="translate(45.690477 0)scale(0.996264)" xlink:href="#CMR17-48"/>
       <use transform="translate(91.380954 0)scale(0.996264)" xlink:href="#CMR17-49"/>
       <use transform="translate(137.071431 0)scale(0.996264)" xlink:href="#CMR17-54"/>
      </g>
     </g>
    </g>
    <g id="xtick_7">
     <g id="line2d_7">
      <g>
       <use style="stroke:#000000;stroke-width:0.8;" x="373.453611" xlink:href="#m3dfb283cd6" y="283.5"/>
      </g>
     </g>
     <g id="text_7">
      <!-- 2018 -->
      <g transform="translate(363.490941 299.518498)scale(0.1 -0.1)">
       <use transform="scale(0.996264)" xlink:href="#CMR17-50"/>
       <use transform="translate(45.690477 0)scale(0.996264)" xlink:href="#CMR17-48"/>
       <use transform="translate(91.380954 0)scale(0.996264)" xlink:href="#CMR17-49"/>
       <use transform="translate(137.071431 0)scale(0.996264)" xlink:href="#CMR17-56"/>
      </g>
     </g>
    </g>
    <g id="text_8">
     <!-- \textbf{ -->
     <g transform="translate(nan nan)scale(0.1 -0.1)"/>
    </g>
   </g>
   <g id="matplotlib.axis_2">
    <g id="ytick_1">
     <g id="line2d_8">
      <defs>
       <path d="M 0 0 
L -3.5 0 
" id="m4dd01029ae" style="stroke:#000000;stroke-width:0.8;"/>
      </defs>
      <g>
       <use style="stroke:#000000;stroke-width:0.8;" x="54" xlink:href="#m4dd01029ae" y="278.395917"/>
      </g>
     </g>
     <g id="text_9">
      <!-- $0$ -->
      <g transform="translate(39.918665 281.855166)scale(0.1 -0.1)">
       <use transform="scale(0.996264)" xlink:href="#CMR17-48"/>
      </g>
     </g>
    </g>
    <g id="ytick_2">
     <g id="line2d_9">
      <g>
       <use style="stroke:#000000;stroke-width:0.8;" x="54" xlink:href="#m4dd01029ae" y="242.116782"/>
      </g>
     </g>
     <g id="text_10">
      <!-- $5000$ -->
      <defs>
       <path d="M 11.40625 57.6875 
C 12.40625 57.28125 16.5 56 20.703125 56 
C 30 56 35.09375 61.109375 38 64.0625 
C 38 64.953125 38 65.5 37.40625 65.5 
C 37.296875 65.5 37.09375 65.5 36.296875 65.046875 
C 32.796875 63.40625 28.703125 62.078125 23.703125 62.078125 
C 20.703125 62.078125 16.203125 62.484375 11.296875 64.671875 
C 10.203125 65.171875 10 65.171875 9.90625 65.171875 
C 9.40625 65.171875 9.296875 65.0625 9.296875 63.078125 
L 9.296875 34.421875 
C 9.296875 32.640625 9.296875 32.140625 10.296875 32.140625 
C 10.796875 32.140625 11 32.34375 11.5 33.03125 
C 14.703125 37.515625 19.09375 39.40625 24.09375 39.40625 
C 27.59375 39.40625 35.09375 37.21875 35.09375 20.140625 
C 35.09375 16.953125 35.09375 11.171875 32.09375 6.578125 
C 29.59375 2.484375 25.703125 0.390625 21.40625 0.390625 
C 14.796875 0.390625 8.09375 5 6.296875 12.71875 
C 6.703125 12.609375 7.5 12.421875 7.90625 12.421875 
C 9.203125 12.421875 11.703125 13.125 11.703125 16.21875 
C 11.703125 18.90625 9.796875 20 7.90625 20 
C 5.59375 20 4.09375 18.59375 4.09375 15.796875 
C 4.09375 7.09375 11 -2 21.59375 -2 
C 31.90625 -2 41.703125 6.875 41.703125 19.75 
C 41.703125 31.71875 33.90625 41 24.203125 41 
C 19.09375 41 14.796875 39.109375 11.40625 35.53125 
z
" id="CMR17-53"/>
      </defs>
      <g transform="translate(24.974659 245.576031)scale(0.1 -0.1)">
       <use transform="scale(0.996264)" xlink:href="#CMR17-53"/>
       <use transform="translate(45.690477 0)scale(0.996264)" xlink:href="#CMR17-48"/>
       <use transform="translate(91.380954 0)scale(0.996264)" xlink:href="#CMR17-48"/>
       <use transform="translate(137.071431 0)scale(0.996264)" xlink:href="#CMR17-48"/>
      </g>
     </g>
    </g>
    <g id="ytick_3">
     <g id="line2d_10">
      <g>
       <use style="stroke:#000000;stroke-width:0.8;" x="54" xlink:href="#m4dd01029ae" y="205.837647"/>
      </g>
     </g>
     <g id="text_11">
      <!-- $10000$ -->
      <g transform="translate(19.993324 209.296896)scale(0.1 -0.1)">
       <use transform="scale(0.996264)" xlink:href="#CMR17-49"/>
       <use transform="translate(45.690477 0)scale(0.996264)" xlink:href="#CMR17-48"/>
       <use transform="translate(91.380954 0)scale(0.996264)" xlink:href="#CMR17-48"/>
       <use transform="translate(137.071431 0)scale(0.996264)" xlink:href="#CMR17-48"/>
       <use transform="translate(182.761908 0)scale(0.996264)" xlink:href="#CMR17-48"/>
      </g>
     </g>
    </g>
    <g id="ytick_4">
     <g id="line2d_11">
      <g>
       <use style="stroke:#000000;stroke-width:0.8;" x="54" xlink:href="#m4dd01029ae" y="169.558511"/>
      </g>
     </g>
     <g id="text_12">
      <!-- $15000$ -->
      <g transform="translate(19.993324 173.017761)scale(0.1 -0.1)">
       <use transform="scale(0.996264)" xlink:href="#CMR17-49"/>
       <use transform="translate(45.690477 0)scale(0.996264)" xlink:href="#CMR17-53"/>
       <use transform="translate(91.380954 0)scale(0.996264)" xlink:href="#CMR17-48"/>
       <use transform="translate(137.071431 0)scale(0.996264)" xlink:href="#CMR17-48"/>
       <use transform="translate(182.761908 0)scale(0.996264)" xlink:href="#CMR17-48"/>
      </g>
     </g>
    </g>
    <g id="ytick_5">
     <g id="line2d_12">
      <g>
       <use style="stroke:#000000;stroke-width:0.8;" x="54" xlink:href="#m4dd01029ae" y="133.279376"/>
      </g>
     </g>
     <g id="text_13">
      <!-- $20000$ -->
      <g transform="translate(19.993324 136.738625)scale(0.1 -0.1)">
       <use transform="scale(0.996264)" xlink:href="#CMR17-50"/>
       <use transform="translate(45.690477 0)scale(0.996264)" xlink:href="#CMR17-48"/>
       <use transform="translate(91.380954 0)scale(0.996264)" xlink:href="#CMR17-48"/>
       <use transform="translate(137.071431 0)scale(0.996264)" xlink:href="#CMR17-48"/>
       <use transform="translate(182.761908 0)scale(0.996264)" xlink:href="#CMR17-48"/>
      </g>
     </g>
    </g>
    <g id="ytick_6">
     <g id="line2d_13">
      <g>
       <use style="stroke:#000000;stroke-width:0.8;" x="54" xlink:href="#m4dd01029ae" y="97.000241"/>
      </g>
     </g>
     <g id="text_14">
      <!-- $25000$ -->
      <g transform="translate(19.993324 100.45949)scale(0.1 -0.1)">
       <use transform="scale(0.996264)" xlink:href="#CMR17-50"/>
       <use transform="translate(45.690477 0)scale(0.996264)" xlink:href="#CMR17-53"/>
       <use transform="translate(91.380954 0)scale(0.996264)" xlink:href="#CMR17-48"/>
       <use transform="translate(137.071431 0)scale(0.996264)" xlink:href="#CMR17-48"/>
       <use transform="translate(182.761908 0)scale(0.996264)" xlink:href="#CMR17-48"/>
      </g>
     </g>
    </g>
    <g id="ytick_7">
     <g id="line2d_14">
      <g>
       <use style="stroke:#000000;stroke-width:0.8;" x="54" xlink:href="#m4dd01029ae" y="60.721106"/>
      </g>
     </g>
     <g id="text_15">
      <!-- $30000$ -->
      <defs>
       <path d="M 22.09375 33.703125 
C 31 33.703125 34.90625 25.96875 34.90625 17.03125 
C 34.90625 5 28.5 0.390625 22.703125 0.390625 
C 17.40625 0.390625 8.796875 3.03125 6.09375 10.828125 
C 6.59375 10.625 7.09375 10.625 7.59375 10.625 
C 10 10.625 11.796875 12.21875 11.796875 14.8125 
C 11.796875 17.703125 9.59375 19 7.59375 19 
C 5.90625 19 3.296875 18.203125 3.296875 14.46875 
C 3.296875 5.234375 12.296875 -2 22.90625 -2 
C 34 -2 42.5 6.71875 42.5 16.953125 
C 42.5 26.671875 34.5 33.703125 25 34.796875 
C 32.59375 36.375 39.90625 43.0625 39.90625 52.015625 
C 39.90625 59.6875 32 65.296875 23 65.296875 
C 13.90625 65.296875 5.90625 59.828125 5.90625 52.015625 
C 5.90625 48.59375 8.5 48 9.796875 48 
C 11.90625 48 13.703125 49.296875 13.703125 51.890625 
C 13.703125 54.46875 11.90625 55.765625 9.796875 55.765625 
C 9.40625 55.765625 8.90625 55.765625 8.5 55.578125 
C 11.40625 61.859375 19.296875 63 22.796875 63 
C 26.296875 63 32.90625 61.328125 32.90625 51.875 
C 32.90625 49.109375 32.5 44.1875 29.09375 39.84375 
C 26.09375 36 22.703125 36 19.40625 35.6875 
C 18.90625 35.6875 16.59375 35.453125 16.203125 35.453125 
C 15.5 35.359375 15.09375 35.265625 15.09375 34.5 
C 15.09375 33.796875 15.203125 33.703125 17.203125 33.703125 
z
" id="CMR17-51"/>
      </defs>
      <g transform="translate(19.993324 64.180355)scale(0.1 -0.1)">
       <use transform="scale(0.996264)" xlink:href="#CMR17-51"/>
       <use transform="translate(45.690477 0)scale(0.996264)" xlink:href="#CMR17-48"/>
       <use transform="translate(91.380954 0)scale(0.996264)" xlink:href="#CMR17-48"/>
       <use transform="translate(137.071431 0)scale(0.996264)" xlink:href="#CMR17-48"/>
       <use transform="translate(182.761908 0)scale(0.996264)" xlink:href="#CMR17-48"/>
      </g>
     </g>
    </g>
    <g id="text_16">
     <!-- \textbf{p(x)} -->
     <defs>
      <path d="M 28.203125 -14.921875 
L 21.296875 -14.921875 
L 21.296875 4.1875 
C 23.796875 2 28.203125 -0.5 34.203125 -0.5 
C 47.90625 -0.5 58.59375 7.703125 58.59375 22.140625 
C 58.59375 35.78125 49.296875 44.578125 35.796875 44.578125 
C 29.90625 44.578125 24.796875 42.78125 20.796875 39.90625 
L 20.796875 44.671875 
L 3.5 44.671875 
L 3.5 40 
C 9.703125 40 10.40625 40 10.40625 36.09375 
L 10.40625 -14.921875 
L 3.5 -14.921875 
L 3.5 -19.1875 
C 5.796875 -19 13 -19 15.796875 -19 
C 18.59375 -19 25.90625 -19 28.203125 -19.1875 
z
M 21.296875 35.09375 
C 25 39.53125 30.296875 41 34.203125 41 
C 40.703125 41 46.59375 35.171875 46.59375 22.140625 
C 46.59375 7.8125 39.40625 2.78125 33 2.78125 
C 28.703125 2.78125 24.40625 4.984375 21.296875 9.6875 
z
" id="CMBX12-112"/>
      <path d="M 37.40625 -23.8125 
C 37.40625 -23.40625 37.40625 -23.203125 35.5 -21.421875 
C 24.296875 -10.296875 20 7.203125 20 24.6875 
C 20 44.28125 24.90625 60.390625 36.09375 71.609375 
C 37.296875 72.796875 37.40625 72.90625 37.40625 73.296875 
C 37.40625 74.5 36.203125 74.5 35.703125 74.5 
C 34.796875 74.5 34.59375 74.5 32 72.40625 
C 17.59375 60.984375 10.796875 42.6875 10.796875 24.8125 
C 10.796875 6.515625 17.703125 -11.28125 31.90625 -22.8125 
C 34.5 -25 34.703125 -25 35.703125 -25 
C 36.203125 -25 37.40625 -25 37.40625 -23.8125 
z
" id="CMBX12-40"/>
      <path d="M 33.703125 24.484375 
L 45.296875 37.734375 
C 46.40625 39.03125 47.296875 39.828125 55.59375 39.828125 
L 55.59375 44 
C 50 44 49.796875 44 46.40625 44 
C 43.5 44 39.203125 44 36.40625 44.09375 
L 36.40625 39.828125 
C 38.296875 39.828125 40.40625 39.328125 40.40625 38.625 
C 40.40625 38.4375 39.90625 37.734375 39.703125 37.53125 
L 31 27.78125 
L 21.09375 39.828125 
L 25.296875 39.828125 
L 25.296875 44.09375 
C 23 44 16.203125 44 13.5 44 
C 10.5 44 5.09375 44 2.296875 44.09375 
L 2.296875 39.828125 
L 9.40625 39.828125 
L 25 20.90625 
L 12 6.265625 
C 10.796875 4.875 10.09375 4.171875 1.796875 4.171875 
L 1.796875 0 
C 7.796875 0 8 0 11.09375 0 
C 14 0 18.203125 0 21 -0.09375 
L 21 4.171875 
C 19.09375 4.171875 17 4.671875 17 5.375 
C 17 5.46875 17 5.5625 17.703125 6.359375 
L 27.703125 17.625 
L 38.796875 4.171875 
L 34.59375 4.171875 
L 34.59375 -0.09375 
C 37 0 43.703125 0 46.5 0 
C 49.5 0 54.796875 0 57.59375 -0.09375 
L 57.59375 4.171875 
L 50.59375 4.171875 
z
" id="CMBX12-120"/>
      <path d="M 32.796875 24.703125 
C 32.796875 42.984375 25.90625 60.78125 11.703125 72.3125 
C 9.09375 74.5 8.90625 74.5 7.90625 74.5 
C 7.40625 74.5 6.203125 74.5 6.203125 73.3125 
C 6.203125 72.921875 6.203125 72.71875 8.09375 70.9375 
C 19.296875 59.796875 23.59375 42.3125 23.59375 24.8125 
C 23.59375 5.21875 18.703125 -10.875 7.5 -22.109375 
C 6.296875 -23.3125 6.203125 -23.40625 6.203125 -23.8125 
C 6.203125 -25 7.40625 -25 7.90625 -25 
C 8.796875 -25 9 -25 11.59375 -22.90625 
C 26 -11.484375 32.796875 6.8125 32.796875 24.703125 
z
" id="CMBX12-41"/>
     </defs>
     <g transform="translate(13.502664 171.851352)rotate(-90)scale(0.1 -0.1)">
      <use transform="scale(0.996264)" xlink:href="#CMBX12-112"/>
      <use transform="translate(62.266501 0)scale(0.996264)" xlink:href="#CMBX12-40"/>
      <use transform="translate(105.853051 0)scale(0.996264)" xlink:href="#CMBX12-120"/>
      <use transform="translate(165.006227 0)scale(0.996264)" xlink:href="#CMBX12-41"/>
     </g>
    </g>
   </g>
   <g id="line2d_15">
    <path clip-path="url(#p561ca33106)" d="M 69.218182 268.459062 
L 69.282285 268.691539 
L 69.410492 268.842678 
L 69.474596 268.894775 
L 69.859217 268.620214 
L 70.62846 268.893178 
L 70.82077 268.368944 
L 71.141288 268.448033 
L 71.269495 268.030678 
L 71.461806 267.990843 
L 71.590013 267.623916 
L 71.71822 267.534597 
L 71.910531 267.382079 
L 71.974634 267.556002 
L 72.038738 267.448035 
L 72.166945 267.093007 
L 72.359256 267.265406 
L 72.423359 267.105632 
L 72.487463 267.36053 
L 72.551566 267.297114 
L 72.61567 266.784272 
L 72.80798 267.08684 
L 72.872084 266.798348 
L 72.936187 266.914369 
L 73.064395 266.921843 
L 73.320809 266.809739 
L 73.513119 267.976913 
L 73.70543 268.420026 
L 73.769534 268.338761 
L 73.833637 268.324176 
L 73.961844 267.815543 
L 74.282362 268.496937 
L 74.666983 268.616731 
L 74.859294 268.06137 
L 75.051605 268.292105 
L 75.243915 268.067465 
L 75.564433 268.436642 
L 75.756744 269.133999 
L 75.949054 268.906021 
L 76.013158 268.63966 
L 76.077261 268.894557 
L 76.205468 268.566593 
L 76.397779 268.463996 
L 76.59009 268.78376 
L 76.974711 267.932071 
L 77.295229 268.188057 
L 77.359332 268.373153 
L 77.423436 268.234422 
L 77.487539 268.311768 
L 77.551643 267.950356 
L 77.743953 267.815615 
L 77.808057 267.913206 
L 77.936264 267.822436 
L 78.000368 267.983225 
L 78.705507 267.617023 
L 78.833714 267.286012 
L 78.897817 267.467771 
L 79.282439 267.868003 
L 79.346542 267.981628 
L 79.538853 268.083573 
L 79.731163 267.811843 
L 79.795267 267.918575 
L 80.115785 267.767581 
L 80.179888 267.951662 
L 80.243992 267.914077 
L 80.500406 268.095255 
L 80.692717 268.518415 
L 81.013234 268.55542 
L 81.077338 268.302336 
L 81.141441 268.333754 
L 81.461959 268.068263 
L 81.526063 267.754739 
L 81.590166 267.781078 
L 82.038891 267.644305 
L 82.231202 267.846452 
L 82.423512 267.431201 
L 82.487616 267.457105 
L 82.74403 267.254522 
L 82.808134 267.452461 
L 82.872237 267.317358 
L 83.128651 267.555711 
L 83.256858 267.445205 
L 83.385065 267.662155 
L 83.64148 267.722741 
L 83.83379 267.545408 
L 84.218412 266.981921 
L 84.282515 267.042289 
L 84.923551 266.711931 
L 85.436379 266.864158 
L 85.62869 266.582487 
L 86.013311 266.406534 
L 86.71845 265.833686 
L 86.910761 266.634076 
L 86.974864 266.380993 
L 87.231278 266.467628 
L 87.359485 266.887523 
L 87.423589 266.759675 
L 87.6159 266.687334 
L 87.80821 266.984751 
L 88.064624 266.618549 
L 88.128728 266.953333 
L 88.192831 266.715632 
L 88.256935 266.948616 
L 88.321039 266.767511 
L 88.577453 266.630739 
L 88.70566 266.180514 
L 88.769763 266.264102 
L 88.962074 266.44615 
L 89.154385 266.922423 
L 89.218488 266.84094 
L 89.410799 266.823309 
L 89.474902 266.983662 
L 89.539006 266.898479 
L 89.667213 266.759384 
L 89.859524 266.736094 
L 90.051834 266.558253 
L 90.115938 266.571604 
L 90.372352 267.269324 
L 90.436456 267.1155 
L 90.500559 267.368076 
L 90.564663 267.195242 
L 90.821077 267.086477 
L 90.88518 267.326935 
L 91.013387 267.256191 
L 91.333905 267.326645 
L 91.398009 267.113179 
L 91.462112 267.334409 
L 91.78263 267.57552 
L 91.910837 267.300887 
L 92.103148 267.14242 
L 92.167251 267.272154 
L 92.231355 267.23943 
L 92.551873 267.108244 
L 92.68008 266.710262 
L 92.744183 266.787247 
L 92.808287 266.668396 
L 93.064701 266.667525 
L 93.128804 266.426197 
L 93.192908 266.51022 
L 93.513426 266.339708 
L 93.577529 266.456308 
L 93.705736 266.04737 
L 94.026254 265.999989 
L 94.410875 265.379181 
L 94.539082 266.065728 
L 94.603186 266.036849 
L 94.795497 265.873956 
L 94.8596 266.097 
L 94.923704 265.933816 
L 95.244221 266.256701 
L 95.372429 266.284708 
L 95.500636 266.064712 
L 95.75705 265.74473 
L 95.821153 265.856397 
L 95.885257 265.958486 
L 95.94936 265.867643 
L 96.141671 265.798205 
L 96.205775 265.959066 
L 96.398085 265.164481 
L 96.590396 265.220786 
L 96.782707 265.591124 
L 97.039121 265.545484 
L 97.167328 265.341959 
L 97.231431 265.211644 
L 97.295535 265.258299 
L 97.551949 265.290732 
L 97.680156 265.378093 
L 97.93657 265.216143 
L 98.000674 265.362058 
L 98.064778 265.306841 
L 98.192985 265.33122 
L 98.385295 265.344934 
L 98.513502 264.979457 
L 98.577606 265.018929 
L 98.641709 265.113255 
L 98.83402 264.958271 
L 98.898124 265.057168 
L 98.962227 264.971839 
L 99.346848 264.429901 
L 99.410952 264.516245 
L 99.475056 264.636548 
L 99.539159 264.473944 
L 99.795573 264.327594 
L 99.92378 264.832962 
L 99.987884 264.547373 
L 100.244298 264.538738 
L 100.372505 264.985698 
L 100.436609 264.649898 
L 100.628919 264.811631 
L 100.757126 264.637346 
L 101.077644 265.685522 
L 101.141748 265.741755 
L 101.269955 266.394634 
L 101.334058 266.383823 
L 101.526369 266.853855 
L 101.590473 266.661867 
L 101.654576 266.94049 
L 101.782783 266.221655 
L 101.975094 266.075668 
L 102.039197 266.5108 
L 102.103301 266.396811 
L 102.231508 266.108174 
L 102.680233 266.899857 
L 102.936647 267.53271 
L 103.000751 267.442739 
L 103.128958 266.942667 
L 103.385372 267.147644 
L 103.577682 266.865537 
L 103.769993 266.633133 
L 103.834097 266.795809 
L 104.026407 265.980544 
L 104.282821 265.87577 
L 104.346925 266.059488 
L 104.411029 265.956382 
L 104.475132 266.027053 
L 104.667443 266.034165 
L 104.731546 265.910307 
L 104.79565 266.050563 
L 104.859753 266.46712 
L 104.923857 266.391442 
L 105.180271 266.694373 
L 105.244375 266.332959 
L 105.308478 266.505576 
L 105.372582 266.638213 
L 105.757203 266.196187 
L 106.013617 266.049547 
L 106.077721 266.084302 
L 106.205928 265.945208 
L 106.270031 266.17783 
L 106.718756 266.649604 
L 106.911067 266.84406 
L 107.039274 266.53917 
L 107.103377 266.570733 
L 107.167481 266.381211 
L 107.423895 266.281371 
L 107.487999 266.432509 
L 107.552102 266.371052 
L 107.616206 266.229273 
L 108.000827 266.330638 
L 108.064931 266.221728 
L 108.321345 266.209248 
L 108.513656 266.549473 
L 108.705966 266.855815 
L 108.898277 266.562897 
L 108.96238 266.585245 
L 109.282898 266.344424 
L 109.603416 266.685738 
L 109.795726 266.36982 
L 109.85983 266.516169 
L 110.052141 266.415966 
L 110.116244 266.586261 
L 110.180348 266.486202 
L 110.244451 266.400076 
L 110.308555 266.460589 
L 110.564969 266.462186 
L 110.629073 266.567903 
L 110.75728 266.318085 
L 111.013694 266.254016 
L 111.206004 266.049402 
L 111.398315 266.048894 
L 111.654729 265.447168 
L 111.84704 265.56406 
L 112.103454 265.030974 
L 112.359868 265.046066 
L 112.488075 264.658823 
L 112.552179 264.714692 
L 112.74449 264.677325 
L 112.872697 264.478733 
L 113.000904 264.704752 
L 113.193214 264.63437 
L 113.321421 264.326288 
L 113.385525 264.365107 
L 113.449629 264.297845 
L 113.641939 264.667892 
L 113.706043 264.559055 
L 113.83425 264.123705 
L 113.898353 264.399427 
L 114.282975 264.109194 
L 114.603492 264.094682 
L 114.795803 263.528727 
L 115.116321 263.579518 
L 115.244528 263.470681 
L 115.500942 263.448913 
L 115.629149 263.231239 
L 115.949667 262.874688 
L 116.141977 263.427146 
L 116.334288 263.376355 
L 116.398392 263.782681 
L 116.462495 263.565007 
L 116.526599 263.572262 
L 116.590702 263.361843 
L 116.847116 263.369099 
L 116.975324 263.710123 
L 117.039427 263.615797 
L 117.295841 263.485193 
L 117.359945 263.376355 
L 117.488152 263.601286 
L 117.680463 263.724635 
L 117.936877 263.296541 
L 118.129187 263.33282 
L 118.321498 263.122401 
L 118.577912 263.15868 
L 119.090741 262.389345 
L 119.283051 262.415321 
L 119.475362 262.295164 
L 119.539465 263.5013 
L 119.603569 263.39348 
L 119.924087 264.289719 
L 120.116397 263.630091 
L 120.180501 263.619716 
L 120.372812 263.389561 
L 120.436915 263.954282 
L 120.501019 263.800748 
L 120.565122 263.829844 
L 120.629226 263.987368 
L 121.077951 263.263817 
L 121.398468 263.361335 
L 121.526675 263.138509 
L 122.167711 262.92693 
L 122.424125 262.338917 
L 122.616436 262.252935 
L 122.680539 262.468216 
L 122.744643 262.346318 
L 122.808746 262.431138 
L 122.87285 262.31265 
L 123.257471 262.51429 
L 123.321575 262.449278 
L 123.513885 262.762875 
L 123.642092 262.746258 
L 123.706196 262.616162 
L 123.770299 262.696267 
L 124.026714 262.929034 
L 124.090817 262.757723 
L 124.154921 263.172538 
L 124.219024 262.953703 
L 124.475438 262.87106 
L 124.667749 262.53185 
L 124.86006 262.367214 
L 125.05237 262.63372 
L 125.372888 262.415684 
L 125.565199 262.074949 
L 125.821613 262.18103 
L 125.94982 262.743502 
L 126.013924 262.655996 
L 126.334441 262.662165 
L 126.462648 262.312795 
L 126.719063 262.145114 
L 126.783166 262.244373 
L 126.84727 262.178853 
L 127.167787 262.464734 
L 127.231891 262.234795 
L 127.295994 262.316351 
L 127.360098 262.499342 
L 127.680616 262.052893 
L 127.808823 262.077489 
L 128.129341 261.953559 
L 128.257548 261.79589 
L 128.578065 262.086051 
L 128.642169 261.797704 
L 128.706272 261.870989 
L 128.898583 261.682628 
L 129.154997 262.796688 
L 129.411412 262.5764 
L 129.539619 262.530036 
L 129.603722 262.807354 
L 129.796033 263.102012 
L 129.860136 263.002607 
L 129.92424 262.73465 
L 130.052447 263.498762 
L 130.244758 263.406684 
L 130.308861 263.66891 
L 130.437068 265.090835 
L 130.501172 264.398556 
L 130.757586 264.15447 
L 130.949897 263.293276 
L 131.142207 263.328974 
L 131.206311 263.98657 
L 131.270414 263.552889 
L 131.334518 263.589966 
L 131.398621 263.433821 
L 131.655036 263.389489 
L 131.719139 263.441585 
L 131.783243 263.311561 
L 131.847346 263.586484 
L 132.167864 263.820847 
L 132.296071 263.529381 
L 132.488382 263.657518 
L 132.616589 263.039032 
L 132.680692 263.155343 
L 132.744796 263.001157 
L 133.065314 262.59824 
L 133.449935 261.994483 
L 133.514038 262.038454 
L 133.578142 262.038961 
L 133.642246 261.868957 
L 133.962763 261.871497 
L 134.026867 262.093161 
L 134.09097 261.982437 
L 134.411488 262.141341 
L 134.475592 261.922215 
L 134.539695 262.165574 
L 134.732006 262.181611 
L 135.180731 261.43825 
L 135.308938 261.334276 
L 135.373041 261.551006 
L 135.437145 261.441226 
L 135.821766 261.975835 
L 135.88587 261.604265 
L 136.07818 261.901536 
L 136.206387 261.639093 
L 136.270491 261.939193 
L 136.334594 261.844215 
L 136.783319 262.345737 
L 137.039733 262.652368 
L 137.167941 262.169059 
L 137.232044 262.381147 
L 137.488458 262.527859 
L 137.680769 262.151135 
L 137.87308 262.106803 
L 138.450011 262.940134 
L 138.898736 262.57894 
L 139.026943 262.783337 
L 139.411565 262.825275 
L 139.667979 263.131689 
L 139.732082 262.861555 
L 139.860289 263.270782 
L 139.924393 263.282538 
L 140.116704 262.923737 
L 140.309014 263.802925 
L 140.373118 263.866414 
L 140.565429 264.777673 
L 140.629532 264.293781 
L 140.693636 264.673334 
L 140.821843 264.009571 
L 141.270568 263.556735 
L 141.462878 263.270782 
L 141.719292 263.937811 
L 141.911603 263.875121 
L 142.103914 263.580896 
L 142.168017 263.600633 
L 142.809053 263.008195 
L 143.001363 262.439482 
L 143.065467 262.707368 
L 143.321881 262.907918 
L 143.385985 262.562904 
L 143.450088 262.584962 
L 143.514192 262.942166 
L 143.706502 263.154326 
L 143.770606 262.835941 
L 143.834709 262.910967 
L 143.898813 262.796543 
L 144.155227 263.470971 
L 144.219331 263.29168 
L 144.283434 263.782246 
L 145.309091 262.781159 
L 145.693712 262.901389 
L 145.757816 263.048971 
L 146.01423 263.004058 
L 146.206541 262.531269 
L 146.398851 262.421342 
L 146.591162 262.944851 
L 146.655265 263.148523 
L 146.847576 263.084744 
L 146.91168 263.376355 
L 146.975783 263.191114 
L 147.10399 263.103319 
L 147.296301 263.118265 
L 147.360404 262.962119 
L 147.424508 263.202288 
L 147.488611 263.145256 
L 147.552715 263.053907 
L 147.745026 262.974672 
L 147.873233 263.24009 
L 148.00144 262.890142 
L 148.386061 262.080248 
L 148.450165 262.176749 
L 148.642475 262.147364 
L 148.706579 262.325929 
L 148.770682 262.190681 
L 149.155304 262.565444 
L 149.219407 262.859377 
L 149.283511 262.508557 
L 149.347614 262.580246 
L 149.539925 262.707947 
L 149.732236 263.472931 
L 149.796339 263.402186 
L 150.052753 263.623053 
L 150.116857 263.535184 
L 150.245064 263.403347 
L 150.437375 263.219992 
L 150.501478 263.393841 
L 150.565582 263.217308 
L 150.629685 263.358361 
L 150.693789 263.209398 
L 150.886099 263.101576 
L 150.950203 263.194088 
L 151.07841 263.89609 
L 151.142514 263.837536 
L 151.398928 264.263162 
L 151.527135 264.318524 
L 151.591238 264.562538 
L 151.783549 264.450145 
L 151.911756 264.773609 
L 151.97586 264.657516 
L 152.039963 264.558257 
L 152.232274 264.016609 
L 152.424585 264.596205 
L 152.488688 264.535619 
L 152.745102 264.41626 
L 152.809206 264.248215 
L 153.193827 265.269037 
L 153.257931 264.815476 
L 153.386138 265.504779 
L 153.642552 266.085681 
L 153.706655 265.749518 
L 153.770759 265.785725 
L 154.091277 265.859444 
L 154.283587 265.618551 
L 154.475898 265.736385 
L 154.732312 265.501297 
L 154.924623 265.489179 
L 155.437451 266.822365 
L 155.501555 266.751476 
L 155.565658 266.690527 
L 155.629762 266.440854 
L 155.95028 267.570368 
L 156.014383 267.453622 
L 156.078487 266.332959 
L 156.270797 266.130305 
L 156.399004 266.381646 
L 156.463108 266.00311 
L 156.527211 266.116155 
L 156.719522 267.1824 
L 156.847729 266.74538 
L 156.975936 267.419955 
L 157.360558 269.055274 
L 157.424661 269.572904 
L 157.681075 268.6028 
L 157.809282 269.791086 
L 157.873386 269.572686 
L 158.065697 269.863645 
L 158.193904 271.56949 
L 158.258007 271.403476 
L 158.322111 271.936272 
L 158.514421 272.302691 
L 158.770836 271.0618 
L 158.963146 270.722009 
L 159.091353 270.154821 
L 159.21956 270.439177 
L 159.475975 270.654675 
L 159.540078 271.080157 
L 159.604182 271.024722 
L 159.668285 270.974585 
L 159.860596 271.219469 
L 160.11701 272.380909 
L 160.565735 271.183698 
L 160.758045 271.682971 
L 161.01446 271.101344 
L 161.270874 270.946867 
L 161.463184 270.427568 
L 161.655495 270.305379 
L 161.783702 270.066446 
L 162.10422 270.809514 
L 162.168324 270.862119 
L 162.617048 270.562091 
L 162.809359 270.100113 
L 163.00167 270.038655 
L 163.065773 269.585311 
L 163.129877 269.927931 
L 163.19398 269.743779 
L 163.514498 270.182611 
L 163.578602 270.504407 
L 163.642705 270.412621 
L 163.706809 270.42931 
L 163.963223 270.81619 
L 164.155533 270.657505 
L 164.411948 270.564122 
L 164.476051 270.374963 
L 164.540155 270.497731 
L 164.796569 270.720558 
L 165.245294 270.153588 
L 165.437604 270.525086 
L 165.501708 270.161351 
L 165.694019 270.241674 
L 165.822226 270.741745 
L 165.886329 270.6636 
L 166.142743 271.071087 
L 166.206847 270.84144 
L 166.27095 271.001431 
L 166.399158 271.000125 
L 166.655572 271.647127 
L 166.719675 271.239712 
L 166.783779 271.467981 
L 166.847882 271.393899 
L 167.040193 271.483726 
L 167.232504 270.955865 
L 167.296607 270.825695 
L 167.488918 270.894915 
L 167.681228 270.568548 
L 167.745332 270.635592 
L 168.129953 269.896223 
L 168.194057 269.940919 
L 168.450471 270.226219 
L 168.514575 270.163383 
L 168.642782 269.71091 
L 168.835092 269.797326 
L 168.899196 270.053603 
L 168.963299 269.956665 
L 169.283817 269.510431 
L 169.347921 269.642269 
L 169.412024 269.580667 
L 169.540231 269.264677 
L 169.732542 269.739498 
L 169.988956 269.259162 
L 170.24537 269.37141 
L 170.373577 269.142924 
L 170.822302 268.0642 
L 170.886406 267.511741 
L 171.14282 267.329185 
L 171.335131 267.957394 
L 171.655648 267.148297 
L 171.783855 267.059413 
L 172.04027 266.915022 
L 172.168477 267.073852 
L 172.488994 266.287683 
L 172.553098 266.779846 
L 172.617202 266.390715 
L 172.681305 266.510147 
L 172.873616 266.603312 
L 173.065926 266.282023 
L 173.386444 266.886507 
L 173.514651 267.295227 
L 173.578755 267.080745 
L 173.771065 267.541345 
L 173.835169 267.462111 
L 174.02748 266.931783 
L 174.347997 266.713237 
L 174.412101 267.062751 
L 174.476204 266.938095 
L 174.668515 267.122756 
L 174.796722 267.672966 
L 175.245447 266.758949 
L 175.30955 266.595476 
L 175.373654 266.622104 
L 175.630068 266.404212 
L 175.694172 266.478149 
L 175.758275 266.210336 
L 175.822379 266.241681 
L 176.014689 266.162956 
L 176.142897 266.382589 
L 176.271104 265.916838 
L 176.591621 265.288193 
L 176.655725 265.50282 
L 176.719828 265.338838 
L 176.912139 265.383969 
L 176.976243 265.628999 
L 177.040346 265.529231 
L 177.10445 265.367499 
L 177.168553 265.61398 
L 177.489071 265.856325 
L 177.617278 265.354802 
L 178.001899 265.49259 
L 178.066003 265.357051 
L 178.258314 265.466831 
L 178.322417 265.744367 
L 178.386521 265.671663 
L 178.450624 265.664045 
L 178.899349 264.548462 
L 178.963453 264.608539 
L 179.219867 264.3876 
L 179.348074 263.756778 
L 179.412177 263.829119 
L 179.604488 263.983378 
L 179.668592 263.464658 
L 179.732695 263.714767 
L 179.796799 263.842251 
L 179.860902 263.769404 
L 180.18142 263.339061 
L 180.245523 263.718902 
L 180.309627 263.704318 
L 180.501938 263.499341 
L 180.758352 262.657738 
L 181.014766 262.477214 
L 181.142973 262.251847 
L 181.207077 262.380275 
L 181.591698 261.63873 
L 181.655801 261.73741 
L 181.848112 261.856477 
L 181.912216 262.032141 
L 181.976319 263.015305 
L 182.040423 262.386007 
L 182.104526 263.044328 
L 182.296837 262.828758 
L 182.425044 262.124434 
L 182.489148 262.267592 
L 182.745562 261.789869 
L 182.809665 261.854881 
L 182.937872 262.293205 
L 183.001976 262.190536 
L 183.194287 261.746407 
L 183.25839 261.846826 
L 183.450701 262.204539 
L 183.771219 262.045274 
L 183.835322 262.745171 
L 183.899426 262.515959 
L 184.091736 262.815842 
L 184.219943 262.283554 
L 184.284047 262.338336 
L 184.34815 262.618339 
L 184.796875 262.595411 
L 185.117393 262.217963 
L 185.437911 262.314103 
L 185.566118 262.075022 
L 185.886636 261.833911 
L 186.014843 261.557102 
L 186.399464 260.969234 
L 186.591775 261.324697 
L 186.784085 261.578797 
L 186.848189 261.921634 
L 186.976396 261.119502 
L 187.040499 261.191552 
L 187.23281 261.18611 
L 187.296914 261.066752 
L 187.489224 261.47823 
L 187.809742 261.662456 
L 187.937949 261.718035 
L 188.13026 261.607311 
L 188.194363 261.39682 
L 188.258467 261.520387 
L 188.386674 262.685964 
L 188.578984 262.5214 
L 188.771295 261.845666 
L 188.835399 261.900448 
L 189.027709 261.875632 
L 189.284123 261.453634 
L 189.476434 261.36845 
L 189.668745 262.348205 
L 189.732848 262.277969 
L 190.181573 261.716657 
L 190.437987 261.568639 
L 190.630298 261.272383 
L 190.822609 261.334927 
L 190.950816 261.109781 
L 191.014919 261.178782 
L 191.079023 261.119067 
L 191.335437 260.69656 
L 191.527748 260.964156 
L 191.720058 260.853359 
L 191.848265 261.172688 
L 192.425197 260.345161 
L 192.617508 260.357858 
L 192.873922 260.989624 
L 193.322647 260.64069 
L 193.514957 260.713975 
L 193.579061 261.166811 
L 193.643165 261.141197 
L 193.771372 261.008996 
L 193.963682 260.887389 
L 194.220096 262.72188 
L 194.412407 261.599113 
L 194.476511 261.782759 
L 194.540614 261.703887 
L 194.604718 261.849004 
L 194.668821 262.339714 
L 194.989339 262.589824 
L 195.053443 263.234285 
L 195.117546 262.987297 
L 195.438064 263.441149 
L 195.502167 262.605787 
L 195.566271 262.661148 
L 195.758582 262.406976 
L 195.822685 262.613115 
L 195.950892 262.149467 
L 196.014996 262.569435 
L 196.207306 262.658101 
L 196.463721 261.843707 
L 196.656031 261.834419 
L 196.720135 261.51821 
L 196.784238 261.539759 
L 196.912445 261.559785 
L 197.232963 261.511971 
L 197.297067 261.702509 
L 197.36117 261.575895 
L 197.553481 261.764038 
L 197.681688 262.541862 
L 197.809895 262.309167 
L 198.066309 262.353937 
L 198.194516 261.783701 
L 198.450931 261.790303 
L 198.643241 261.657087 
L 198.707345 261.830356 
L 198.899655 261.685893 
L 199.091966 261.274124 
L 199.15607 261.161877 
L 199.412484 261.073863 
L 199.476587 261.168988 
L 199.540691 260.942243 
L 199.604794 261.024307 
L 199.797105 260.584385 
L 199.861209 260.684661 
L 199.925312 260.577638 
L 200.053519 260.798142 
L 200.24583 260.781091 
L 200.374037 261.349584 
L 200.502244 261.214264 
L 200.822762 260.497969 
L 200.886865 260.769481 
L 200.950969 260.699173 
L 201.143279 261.209548 
L 201.207383 261.756201 
L 201.271487 261.481642 
L 201.33559 261.55195 
L 201.399694 261.351471 
L 201.592004 261.655273 
L 201.848418 260.813452 
L 202.040729 260.706719 
L 202.168936 260.837397 
L 202.489454 260.561675 
L 202.617661 260.696923 
L 202.745868 260.449137 
L 203.002282 260.026485 
L 203.130489 260.091207 
L 203.194593 259.692282 
L 203.386904 259.526196 
L 203.451007 259.159341 
L 203.515111 259.230304 
L 203.643318 259.151359 
L 203.835628 259.352127 
L 203.899732 259.04956 
L 203.963835 259.082211 
L 204.027939 259.230376 
L 204.092043 258.808885 
L 204.733078 258.439707 
L 204.797182 258.602602 
L 204.989492 257.702952 
L 205.694631 255.828118 
L 205.886942 254.07199 
L 206.20746 254.372092 
L 206.271563 254.156739 
L 206.335667 255.06495 
L 206.527977 254.663703 
L 206.592081 255.738146 
L 206.656184 255.435579 
L 206.784392 254.736116 
L 207.040806 255.169506 
L 207.169013 254.298228 
L 207.489531 254.73111 
L 207.617738 253.476505 
L 207.681841 253.563357 
L 207.874152 253.316369 
L 208.066462 253.952995 
L 208.130566 253.79235 
L 208.322877 253.589187 
L 208.451084 254.527874 
L 208.515187 254.185254 
L 208.579291 253.703757 
L 208.771601 253.252227 
L 208.835705 253.414468 
L 208.963912 253.171615 
L 209.220326 253.163706 
L 209.669051 252.068294 
L 209.797258 252.240111 
L 209.861362 252.24998 
L 209.925465 252.664868 
L 210.181879 252.668859 
L 210.245983 252.264419 
L 210.37419 252.717109 
L 210.566501 252.540865 
L 210.758811 251.804617 
L 210.822915 251.924773 
L 211.015226 252.044204 
L 211.079329 252.240329 
L 211.143433 251.968744 
L 211.207536 252.153114 
L 211.27164 252.39749 
L 211.46395 252.324788 
L 211.592157 251.977596 
L 211.720365 252.048413 
L 212.040882 252.95931 
L 212.104986 253.624088 
L 212.169089 253.290465 
L 212.3614 252.935728 
L 212.425504 253.071557 
L 212.489607 252.671181 
L 212.553711 252.722045 
L 212.617814 252.731621 
L 212.810125 252.88842 
L 213.002435 253.851559 
L 213.066539 253.468959 
L 213.25885 253.322319 
L 213.387057 253.535422 
L 213.45116 253.182136 
L 213.515264 253.234741 
L 213.835782 253.30875 
L 213.963989 253.700637 
L 214.156299 254.030923 
L 214.284506 255.195192 
L 214.412713 254.612258 
L 214.733231 254.097385 
L 215.053749 254.356057 
L 215.117852 254.27617 
L 215.310163 253.204049 
L 215.566577 252.920345 
L 215.630681 252.971572 
L 215.694784 253.316006 
L 215.758888 253.14281 
L 215.951199 253.376954 
L 216.143509 253.85983 
L 216.207613 253.862152 
L 216.399923 254.444577 
L 216.528131 253.624959 
L 216.848648 253.717762 
L 216.912752 253.913306 
L 216.976855 253.890885 
L 217.040959 253.900536 
L 217.105062 253.682425 
L 217.297373 253.757741 
L 217.489684 254.410403 
L 217.553787 254.336755 
L 217.746098 254.023086 
L 217.810201 253.565605 
L 217.874305 253.838062 
L 218.002512 253.884428 
L 218.258926 253.978245 
L 218.387133 253.829355 
L 218.451237 253.843722 
L 218.899962 254.699692 
L 219.156376 254.807877 
L 219.284583 255.537594 
L 219.348687 255.431442 
L 219.605101 255.721385 
L 219.669204 255.733865 
L 219.733308 254.938843 
L 219.797411 254.975776 
L 219.989722 255.160727 
L 220.053826 254.701142 
L 220.117929 254.85736 
L 220.182033 254.923317 
L 220.246136 254.674587 
L 220.566654 254.208037 
L 220.694861 254.541514 
L 221.079482 254.011695 
L 221.143586 253.755128 
L 221.4 253.507125 
L 221.528207 253.093325 
L 221.592311 253.212828 
L 221.976932 254.433984 
L 222.041035 254.2589 
L 222.233346 254.490869 
L 222.425657 253.966201 
L 222.682071 254.227629 
L 222.746174 253.953649 
L 222.874382 254.662325 
L 222.938485 254.293147 
L 223.130796 254.188955 
L 223.259003 254.388199 
L 223.38721 256.137869 
L 223.579521 258.526488 
L 223.771831 256.998411 
L 224.028245 256.703389 
L 224.156452 256.673204 
L 224.28466 257.895449 
L 224.605177 257.292489 
L 224.669281 257.602458 
L 224.733384 257.470911 
L 225.053902 256.883913 
L 225.37442 258.200483 
L 225.502627 257.523152 
L 225.56673 257.844295 
L 225.630834 258.419029 
L 225.823145 258.891818 
L 225.887248 258.762448 
L 226.015455 258.287989 
L 226.271869 258.683431 
L 226.335973 258.680747 
L 226.46418 260.395952 
L 226.528284 260.382384 
L 226.720594 260.220433 
L 226.784698 259.850459 
L 227.233423 261.8038 
L 227.682148 260.767449 
L 227.874458 258.681472 
L 228.066769 258.971342 
L 228.194976 258.550142 
L 228.259079 258.531494 
L 228.323183 258.097523 
L 228.643701 257.493475 
L 228.771908 256.518002 
L 228.964218 257.313821 
L 229.092426 258.882748 
L 229.156529 258.203893 
L 229.220633 258.359966 
L 229.412943 258.460169 
L 229.477047 258.131625 
L 229.54115 258.976132 
L 229.605254 258.851475 
L 229.669357 258.430276 
L 229.989875 259.342624 
L 230.053979 260.118416 
L 230.118082 260.052896 
L 230.310393 260.590118 
L 230.374496 260.378756 
L 230.4386 260.903859 
L 230.502704 260.792627 
L 230.566807 260.793281 
L 230.823221 260.604339 
L 231.015532 259.315777 
L 231.207843 259.23988 
L 231.848878 260.971557 
L 231.912982 260.739588 
L 232.105292 260.979537 
L 232.297603 260.573138 
L 232.618121 260.565665 
L 232.682224 260.793426 
L 232.746328 260.527501 
L 233.066845 259.761502 
L 233.259156 258.29909 
L 233.451467 258.221017 
L 233.51557 257.83849 
L 233.579674 257.892909 
L 233.643777 257.934557 
L 233.707881 258.416852 
L 233.900191 258.409233 
L 234.092502 257.483609 
L 234.156606 257.589179 
L 234.541227 257.290893 
L 234.60533 257.850462 
L 234.797641 258.291253 
L 234.861745 258.172694 
L 234.925848 257.8107 
L 234.989952 257.951537 
L 235.310469 258.300468 
L 235.374573 258.65898 
L 235.438677 258.449649 
L 235.50278 258.646355 
L 235.695091 258.387901 
L 235.823298 258.620378 
L 235.951505 258.08809 
L 236.272023 257.79938 
L 236.656644 258.935135 
L 236.720747 259.180891 
L 236.848955 258.389425 
L 237.105369 259.156365 
L 237.169472 258.919899 
L 237.233576 258.921568 
L 237.48999 259.224499 
L 237.682301 258.485274 
L 237.746404 258.331959 
L 237.938715 258.390151 
L 238.131026 258.995432 
L 238.195129 258.719057 
L 238.57975 259.10456 
L 238.643854 258.961911 
L 239.348993 260.277754 
L 239.413096 260.228052 
L 239.4772 259.801555 
L 239.541304 260.241257 
L 239.797718 260.829487 
L 239.990028 261.428311 
L 240.823374 262.467781 
L 240.887478 262.353138 
L 241.079789 262.082132 
L 241.143892 261.096139 
L 241.207996 261.453488 
L 241.720824 263.002535 
L 241.977238 262.478737 
L 242.169549 261.415395 
L 242.425963 261.31345 
L 242.682377 262.322955 
L 243.002895 262.276952 
L 243.066999 262.232981 
L 243.131102 262.444127 
L 243.45162 262.787618 
L 243.579827 261.903277 
L 243.772138 261.926713 
L 243.836241 261.333622 
L 243.964448 261.624581 
L 244.028552 261.406471 
L 244.413173 261.938902 
L 244.477277 261.368813 
L 244.669587 261.205267 
L 244.797794 260.789217 
L 244.861898 261.119793 
L 244.926001 261.100275 
L 245.182416 261.581698 
L 245.374726 261.117037 
L 245.567037 261.090116 
L 245.63114 260.95581 
L 245.759347 260.237919 
L 245.823451 260.550864 
L 246.015762 260.71499 
L 246.079865 261.070671 
L 246.143969 260.990494 
L 246.272176 260.721013 
L 246.592694 260.984979 
L 246.656797 261.158685 
L 246.977315 260.606879 
L 247.041418 260.555217 
L 247.105522 261.118197 
L 247.169625 260.903206 
L 247.490143 260.689159 
L 247.554247 260.376652 
L 247.61835 260.546946 
L 248.002972 260.673414 
L 248.067075 260.555217 
L 248.323489 260.639022 
L 248.387593 260.652228 
L 248.5158 260.921129 
L 248.708111 260.963357 
L 248.836318 261.110723 
L 248.900421 260.944638 
L 248.964525 261.112828 
L 249.156835 261.187924 
L 249.41325 259.938108 
L 249.60556 260.406981 
L 249.669664 260.315702 
L 249.797871 260.250617 
L 249.861974 260.025977 
L 250.118389 260.01386 
L 250.182492 260.539254 
L 250.246596 260.298579 
L 250.310699 260.606588 
L 250.695321 260.478233 
L 250.759424 260.359672 
L 251.015838 260.726963 
L 251.079942 261.07038 
L 251.144045 260.854084 
L 251.208149 260.98099 
L 251.40046 260.945072 
L 251.528667 260.46285 
L 251.59277 260.576114 
L 251.656874 260.778406 
L 251.849184 260.56719 
L 251.913288 261.207153 
L 251.977391 261.143084 
L 252.105599 261.124654 
L 252.426116 261.537802 
L 252.554323 261.017269 
L 252.746634 261.019299 
L 252.874841 261.198229 
L 252.938945 260.968581 
L 253.003048 261.054127 
L 253.195359 261.021767 
L 253.451773 261.83021 
L 253.772291 261.564575 
L 253.836394 262.125451 
L 253.900498 261.417863 
L 254.221016 261.50798 
L 254.349223 260.841894 
L 254.541533 260.839138 
L 254.66974 260.473734 
L 254.733844 260.618923 
L 255.438983 258.375712 
L 255.503086 257.562115 
L 255.56719 257.760635 
L 255.631294 257.643671 
L 255.695397 258.178281 
L 256.144122 257.685682 
L 256.592847 256.655427 
L 256.785157 256.677558 
L 256.913364 256.107249 
L 256.977468 255.799821 
L 257.041572 255.847274 
L 257.297986 256.030557 
L 257.490296 255.196498 
L 257.682607 254.81165 
L 257.746711 254.406702 
L 257.810814 254.445447 
L 257.939021 254.163123 
L 258.131332 254.146217 
L 258.195435 253.21711 
L 258.259539 253.273197 
L 258.387746 252.772254 
L 258.64416 254.031576 
L 258.708264 254.524173 
L 258.772367 254.430138 
L 258.836471 254.597095 
L 259.221092 254.424188 
L 259.54161 254.678287 
L 259.669817 255.726028 
L 259.733921 255.6251 
L 259.990335 255.760566 
L 260.054438 255.475341 
L 260.118542 256.276165 
L 260.182645 255.904958 
L 260.374956 255.610443 
L 260.567267 254.247147 
L 260.63137 254.271091 
L 260.887784 253.824131 
L 261.015991 253.005964 
L 261.080095 253.082078 
L 261.336509 253.586358 
L 261.464716 253.073153 
L 261.52882 253.507197 
L 261.849338 253.865562 
L 262.362166 254.472513 
L 262.61858 253.875649 
L 262.682684 253.183514 
L 262.746787 253.270947 
L 262.810891 253.089624 
L 263.067305 253.703466 
L 263.131408 253.193528 
L 263.195512 253.544492 
L 263.259616 253.625539 
L 263.644237 252.250125 
L 263.772444 251.300918 
L 264.028858 250.490442 
L 264.157065 250.510613 
L 264.541686 249.095219 
L 264.669894 251.458587 
L 264.926308 252.927165 
L 264.990411 251.397638 
L 265.054515 251.500671 
L 265.375033 252.00096 
L 265.567343 252.929996 
L 265.759654 252.776245 
L 265.823757 253.569669 
L 265.887861 253.188738 
L 265.951964 252.894587 
L 266.016068 253.077217 
L 266.208379 253.102322 
L 266.336586 253.557843 
L 266.464793 253.365636 
L 266.657103 253.626192 
L 266.913518 255.177852 
L 267.169932 256.280229 
L 267.234035 256.114287 
L 267.618657 256.533023 
L 267.746864 257.055949 
L 268.003278 256.484625 
L 268.067381 256.67139 
L 268.452003 255.702158 
L 268.58021 255.70535 
L 268.644313 254.944576 
L 268.708417 254.985863 
L 269.028935 253.176839 
L 269.093038 253.893788 
L 269.157142 253.652532 
L 269.477659 253.265505 
L 269.605867 253.557843 
L 269.798177 253.840965 
L 269.862281 254.185109 
L 269.926384 254.031865 
L 270.054591 253.299535 
L 270.246902 253.340604 
L 270.311006 253.223784 
L 270.503316 252.165303 
L 270.695627 251.775521 
L 270.823834 250.219799 
L 270.887938 250.351347 
L 270.952041 250.712832 
L 271.272559 250.443352 
L 271.336662 249.782708 
L 271.400766 250.074901 
L 271.593077 250.110526 
L 271.65718 250.475349 
L 271.721284 249.914546 
L 271.785387 249.936023 
L 272.041801 249.557415 
L 272.298216 248.055095 
L 272.618733 245.623306 
L 272.682837 246.508371 
L 272.939251 244.674822 
L 273.003355 244.788014 
L 273.131562 243.794982 
L 273.195665 243.803833 
L 273.387976 242.865655 
L 273.516183 243.579192 
L 273.580286 243.288307 
L 273.64439 244.074838 
L 273.836701 243.685709 
L 273.900804 242.795056 
L 273.964908 243.061492 
L 274.093115 243.165465 
L 274.413633 242.50555 
L 274.54184 240.361743 
L 274.798254 240.046841 
L 274.862357 240.253558 
L 274.990564 238.736654 
L 275.182875 237.31154 
L 275.246979 237.644943 
L 275.311082 239.479505 
L 275.375186 237.461662 
L 275.439289 238.334682 
L 275.6316 238.701392 
L 275.695703 240.532401 
L 275.759807 240.473121 
L 275.888014 241.429873 
L 276.080325 240.495756 
L 276.144428 238.449177 
L 276.336739 239.982261 
L 276.52905 239.203929 
L 276.657257 240.345563 
L 276.785464 237.964054 
L 276.977774 238.110332 
L 277.041878 240.750656 
L 277.105981 239.490172 
L 277.170085 239.250224 
L 277.234189 238.274531 
L 277.490603 237.065203 
L 277.554706 237.754797 
L 277.61881 236.789552 
L 277.682913 236.902163 
L 277.875224 238.264809 
L 277.939328 240.005265 
L 278.003431 239.863486 
L 278.131638 239.713073 
L 278.323949 239.692103 
L 278.452156 240.764877 
L 278.836777 239.0488 
L 278.900881 239.133259 
L 279.029088 240.195586 
L 279.221398 239.567882 
L 279.413709 240.088342 
L 279.477813 239.213289 
L 279.670123 239.279537 
L 279.862434 239.790202 
L 279.926537 239.344695 
L 280.118848 240.063167 
L 280.375262 238.555042 
L 280.567573 237.973776 
L 280.631676 238.052938 
L 280.823987 235.885695 
L 281.016298 235.445846 
L 281.272712 238.160833 
L 281.59323 237.332216 
L 281.721437 234.725634 
L 281.977851 233.858198 
L 282.170162 237.872123 
L 282.362472 239.160759 
L 282.618886 234.348693 
L 282.811197 233.759954 
L 283.067611 235.479007 
L 283.259922 234.988077 
L 283.452233 236.517314 
L 283.516336 236.425383 
L 283.836854 236.67658 
L 283.900957 235.521235 
L 283.965061 235.72556 
L 284.349682 237.342157 
L 284.413786 236.695808 
L 284.606096 236.582836 
L 284.862511 234.231005 
L 285.118925 233.450348 
L 285.183028 233.88178 
L 285.695857 231.24581 
L 285.75996 232.054037 
L 286.144581 231.245013 
L 286.465099 232.564921 
L 286.529203 231.596775 
L 286.84972 231.574136 
L 287.042031 229.577625 
L 287.106135 230.817355 
L 287.362549 228.856177 
L 287.426652 229.186827 
L 287.74717 228.41524 
L 287.811274 228.958485 
L 287.875377 228.173693 
L 287.939481 228.950793 
L 288.003584 228.717519 
L 288.195895 228.741972 
L 288.324102 228.327153 
L 288.388206 229.169485 
L 288.901034 224.362861 
L 289.157448 223.457551 
L 289.285655 221.687349 
L 289.349759 222.43731 
L 289.542069 222.684008 
L 289.606173 222.462199 
L 289.670276 222.558845 
L 289.990794 218.231981 
L 290.183105 219.866717 
L 290.247208 220.005591 
L 290.439519 225.899211 
L 290.567726 222.325281 
L 290.63183 225.082711 
L 290.888244 220.457341 
L 290.952347 220.983895 
L 291.016451 220.47468 
L 291.080554 221.651722 
L 291.144658 221.037878 
L 291.336969 221.166814 
L 291.465176 219.222979 
L 291.529279 219.289298 
L 291.593383 219.321149 
L 291.785693 219.246776 
L 292.042108 214.38443 
L 292.234418 214.252883 
L 292.426729 217.869331 
L 292.490833 215.547757 
L 292.81135 219.345311 
L 292.875454 218.661379 
L 292.939557 220.90858 
L 293.131868 221.477146 
L 293.260075 213.546091 
L 293.324179 218.985276 
L 293.388282 217.977226 
L 293.580593 218.017204 
L 293.644696 219.889353 
L 293.7088 219.390153 
L 293.772903 218.595205 
L 293.837007 218.695915 
L 294.029318 218.807005 
L 294.157525 216.536435 
L 294.221628 217.636925 
L 294.285732 215.486883 
L 294.60625 213.604499 
L 294.990871 209.302956 
L 295.119078 207.036382 
L 295.183181 207.163288 
L 295.375492 206.22808 
L 295.503699 202.660395 
L 295.567803 205.377412 
L 295.631906 202.828873 
L 296.080631 198.189353 
L 296.272942 198.855217 
L 296.401149 194.872136 
L 296.529356 194.366836 
L 296.849874 189.460664 
L 296.913977 190.199816 
L 296.978081 187.440278 
L 297.170391 187.022777 
L 297.234495 187.342614 
L 297.362702 200.734476 
L 297.426806 195.538652 
L 297.87553 205.545671 
L 298.131945 206.60444 
L 298.196048 208.354618 
L 298.516566 197.909713 
L 298.708876 203.893014 
L 298.77298 201.804349 
L 298.965291 203.693118 
L 299.029394 202.596326 
L 299.093498 204.194492 
L 299.414015 195.865384 
L 299.542223 199.411669 
L 299.86274 202.983421 
L 300.311465 208.183164 
L 300.375569 207.324801 
L 300.439672 208.853825 
L 300.503776 208.214582 
L 300.567879 206.006926 
L 300.824293 206.293821 
L 300.888397 204.933715 
L 300.952501 204.945761 
L 301.208915 210.433781 
L 301.273018 210.348886 
L 301.337122 208.259279 
L 301.401225 209.039061 
L 301.465329 208.881105 
L 301.721743 213.902569 
L 301.785847 218.324634 
L 301.84995 215.627713 
L 302.106364 223.384267 
L 302.170468 222.741619 
L 302.234571 220.526562 
L 302.298675 221.155785 
L 302.362779 220.188585 
L 302.555089 219.231833 
L 302.619193 217.637506 
L 303.003814 217.132723 
L 303.067918 216.148035 
L 303.260228 215.513653 
L 303.516642 219.929405 
L 303.708953 217.014157 
L 303.901264 218.885948 
L 303.965367 218.705565 
L 304.157678 215.568001 
L 304.349989 215.819631 
L 304.414092 216.117411 
L 304.542299 214.728501 
L 304.606403 214.997476 
L 304.798713 214.481009 
L 304.862817 212.988193 
L 304.991024 216.828191 
L 305.055128 216.790608 
L 305.247438 215.793074 
L 305.311542 212.931521 
L 305.375645 213.400465 
L 305.439749 212.355122 
L 305.503852 213.031218 
L 305.696163 212.223136 
L 305.760267 212.969983 
L 305.888474 210.753179 
L 305.952577 209.014027 
L 306.273095 209.370072 
L 306.337198 210.274004 
L 306.401302 209.924562 
L 306.593613 209.39612 
L 306.657716 208.418836 
L 306.72182 208.998792 
L 306.785923 210.664444 
L 306.850027 208.728293 
L 307.042337 208.918836 
L 307.234648 206.277056 
L 307.298752 206.354766 
L 307.491062 205.462377 
L 307.555166 207.052927 
L 307.747476 204.057574 
L 308.196201 195.78557 
L 308.516719 197.376119 
L 308.580823 201.990825 
L 308.644926 201.023625 
L 308.837237 198.903032 
L 308.90134 199.762847 
L 308.965444 198.061724 
L 309.285962 195.396221 
L 309.350065 195.606498 
L 309.414169 196.586396 
L 309.542376 193.599894 
L 309.734686 193.658961 
L 309.862893 190.389049 
L 309.926997 190.84805 
L 310.247515 196.433082 
L 310.439825 188.355532 
L 310.632136 190.943609 
L 310.69624 190.32578 
L 310.760343 189.98686 
L 310.824447 190.96182 
L 311.144964 188.266358 
L 311.273171 190.421771 
L 311.337275 189.837896 
L 311.529586 190.558618 
L 311.721896 188.824766 
L 311.786 188.599105 
L 311.97831 190.619421 
L 312.042414 193.768592 
L 312.106518 193.298345 
L 312.170621 193.498022 
L 312.491139 199.75625 
L 312.619346 198.786216 
L 312.683449 200.026743 
L 312.87576 200.335044 
L 312.939864 195.06528 
L 313.003967 197.12833 
L 313.068071 196.797396 
L 313.132174 197.016304 
L 313.324485 197.125141 
L 313.388588 195.810023 
L 313.452692 195.935115 
L 313.580899 195.940337 
L 313.77321 196.974073 
L 313.837313 196.087339 
L 313.901417 197.482852 
L 313.96552 196.668237 
L 314.029624 196.973421 
L 314.221935 194.354209 
L 314.286038 194.752699 
L 314.350142 194.566442 
L 314.414245 195.293045 
L 314.478349 193.615787 
L 314.670659 196.365023 
L 314.86297 192.710403 
L 314.927074 193.022985 
L 315.119384 192.855378 
L 315.183488 192.468424 
L 315.247591 194.871917 
L 315.568109 191.695027 
L 315.76042 188.145616 
L 315.824523 188.585175 
L 316.016834 191.459715 
L 316.080937 190.260399 
L 316.273248 199.277869 
L 316.465559 201.570788 
L 316.593766 196.305665 
L 316.657869 196.952454 
L 316.978387 199.97124 
L 317.042491 199.222798 
L 317.106594 196.70205 
L 317.170698 197.36683 
L 317.363008 192.558101 
L 317.427112 194.239717 
L 317.491215 193.968637 
L 317.555319 193.685008 
L 317.619423 195.295001 
L 317.875837 196.939827 
L 318.324562 207.450396 
L 318.516872 198.861169 
L 318.709183 198.34332 
L 318.773286 200.493659 
L 318.83739 200.031681 
L 318.901493 198.65126 
L 318.965597 199.09974 
L 319.157908 199.100902 
L 319.222011 197.294924 
L 319.286115 197.43068 
L 319.670736 201.043501 
L 319.798943 200.031029 
L 319.863047 201.808629 
L 320.055357 203.829235 
L 320.247668 211.000819 
L 320.311771 207.293822 
L 320.504082 210.108643 
L 320.632289 207.182731 
L 320.696393 208.732941 
L 320.760496 204.462667 
L 321.081014 199.166785 
L 321.145118 196.562744 
L 321.209221 197.374667 
L 321.465635 200.305369 
L 321.657946 197.297177 
L 321.91436 198.084505 
L 321.978464 199.855508 
L 322.106671 196.192619 
L 322.298981 192.572691 
L 322.363085 193.547657 
L 322.427188 188.909292 
L 322.491292 189.83086 
L 322.555396 187.979242 
L 322.747706 187.616231 
L 322.940017 184.799667 
L 323.196431 185.004573 
L 323.388742 182.750406 
L 323.452845 182.744383 
L 323.645156 178.63446 
L 323.709259 178.657248 
L 323.837466 178.434712 
L 323.90157 175.552767 
L 324.222088 185.161586 
L 324.286191 182.870049 
L 324.542605 184.272315 
L 324.670813 186.203088 
L 324.734916 184.653827 
L 325.119537 181.872451 
L 325.88878 197.763002 
L 326.016987 191.029595 
L 326.465712 193.682833 
L 326.97854 195.749362 
L 327.234954 198.901437 
L 327.363162 203.617945 
L 327.427265 201.002942 
L 327.491369 205.689845 
L 327.683679 207.599941 
L 327.747783 207.279601 
L 327.811886 210.183455 
L 327.940093 203.443947 
L 328.132404 202.961512 
L 328.196508 202.2582 
L 328.388818 196.361395 
L 328.581129 196.754442 
L 328.645232 198.038866 
L 328.709336 197.700959 
L 328.77344 195.519932 
L 328.837543 195.677023 
L 329.158061 196.065791 
L 329.222164 198.502806 
L 329.286268 196.576384 
L 329.542682 194.564557 
L 329.606786 190.89826 
L 329.670889 191.390785 
L 329.734993 192.588145 
L 330.119614 184.534971 
L 330.183718 184.583657 
L 330.568339 181.691197 
L 330.632442 182.116392 
L 330.824753 182.358081 
L 330.888857 181.130252 
L 331.273478 187.365693 
L 331.337581 190.771864 
L 331.465788 184.26941 
L 331.529892 184.749096 
L 331.722203 184.520246 
L 331.786306 184.604702 
L 331.85041 187.704102 
L 332.235031 184.581191 
L 332.299135 184.992378 
L 332.427342 182.765279 
L 332.683756 187.894638 
L 332.811963 192.311694 
L 332.876066 189.716141 
L 333.068377 189.987583 
L 333.196584 181.906547 
L 333.260688 182.548546 
L 333.324791 182.344221 
L 333.517102 182.542304 
L 333.645309 177.72233 
L 333.709413 177.368247 
L 333.773516 177.427598 
L 333.965827 181.355905 
L 334.094034 178.68518 
L 334.158137 178.705863 
L 334.222241 178.816437 
L 334.414552 180.086646 
L 334.478655 182.864246 
L 334.542759 182.473012 
L 334.670966 180.776672 
L 334.863276 182.109207 
L 334.991483 180.174438 
L 335.119691 183.18815 
L 335.312001 182.60028 
L 335.504312 186.78167 
L 335.568415 186.564136 
L 335.82483 188.557895 
L 336.01714 186.047669 
L 336.209451 185.89631 
L 336.337658 186.783625 
L 336.465865 185.586052 
L 336.658176 185.141923 
L 336.786383 179.536074 
L 336.850486 180.236403 
L 336.91459 181.71616 
L 337.171004 183.79212 
L 337.299211 183.537734 
L 337.683832 178.684237 
L 337.747936 175.052264 
L 337.81204 177.361863 
L 338.00435 178.454588 
L 338.260764 168.748105 
L 338.453075 167.894681 
L 338.645386 171.810645 
L 339.030007 168.505325 
L 339.158214 164.89113 
L 339.350525 162.309218 
L 339.542835 163.909779 
L 339.606939 163.416163 
L 339.799249 164.387934 
L 339.863353 164.06077 
L 339.927457 164.488935 
L 339.99156 166.256097 
L 340.055664 163.728454 
L 340.247974 166.348028 
L 340.312078 169.111265 
L 340.440285 165.498515 
L 340.504388 166.697469 
L 340.696699 166.85376 
L 340.760803 166.257542 
L 340.953113 168.356871 
L 341.209527 167.883797 
L 341.401838 165.217933 
L 341.594149 165.951274 
L 341.658252 163.518177 
L 341.722356 163.644141 
L 341.786459 163.022684 
L 341.850563 164.014918 
L 342.042874 162.376476 
L 342.171081 164.846071 
L 342.235184 164.182525 
L 342.299288 162.551919 
L 342.491598 162.256754 
L 342.683909 158.980238 
L 342.748013 162.479942 
L 342.940323 161.879522 
L 343.004427 165.781272 
L 343.06853 165.594215 
L 343.132634 163.379955 
L 343.196737 163.549525 
L 343.453152 162.209521 
L 343.581359 157.636819 
L 343.645462 159.097706 
L 343.901876 159.774029 
L 343.96598 156.823302 
L 344.030083 156.908487 
L 344.094187 157.400069 
L 344.350601 155.962325 
L 344.478808 154.00695 
L 344.542912 154.058464 
L 344.799326 153.892019 
L 344.927533 153.343113 
L 345.312154 146.881218 
L 345.376258 146.722171 
L 345.440361 145.924256 
L 345.696776 144.822887 
L 345.889086 148.741104 
L 346.081397 150.619853 
L 346.273708 157.17949 
L 346.337811 156.825045 
L 346.530122 153.178043 
L 346.594225 154.042719 
L 346.658329 154.866255 
L 346.786536 164.77155 
L 346.978847 164.524923 
L 347.107054 158.52349 
L 347.235261 159.508327 
L 347.427571 156.176669 
L 347.555779 152.387965 
L 347.619882 152.25206 
L 347.683986 153.82323 
L 347.9404 154.740809 
L 348.004503 151.836877 
L 348.13271 155.425903 
L 348.325021 155.053972 
L 348.389125 153.340208 
L 348.453228 153.619132 
L 348.773746 153.904136 
L 348.837849 153.614044 
L 349.222471 162.330765 
L 349.286574 161.837879 
L 349.350678 158.041417 
L 349.414781 159.556715 
L 349.478885 159.730352 
L 349.671196 161.480891 
L 349.863506 155.642856 
L 350.11992 151.383969 
L 350.312231 146.175163 
L 350.568645 144.091069 
L 350.632749 142.107394 
L 350.696852 144.397046 
L 350.760956 143.50081 
L 350.825059 141.368972 
L 351.01737 140.553711 
L 351.209681 143.194747 
L 351.273784 140.248669 
L 351.466095 137.120685 
L 351.530198 137.872754 
L 351.594302 137.58476 
L 351.658405 139.226249 
L 351.722509 138.969546 
L 351.91482 142.149625 
L 352.10713 137.814339 
L 352.171234 139.08041 
L 352.363544 138.730968 
L 352.491752 139.461922 
L 352.619959 136.886032 
L 352.812269 136.852588 
L 352.940476 135.767615 
L 353.00458 136.448642 
L 353.325098 132.750282 
L 353.453305 136.630917 
L 353.517408 139.683012 
L 353.837926 137.930574 
L 353.90203 140.778203 
L 353.966133 138.60915 
L 354.158444 139.10334 
L 354.222547 138.734596 
L 354.286651 138.84743 
L 354.350754 142.091649 
L 354.414858 141.290461 
L 354.607169 139.169294 
L 354.671272 140.083599 
L 354.799479 136.172354 
L 354.863583 137.386174 
L 355.055893 134.777563 
L 355.119997 136.65189 
L 355.1841 135.698543 
L 355.504618 134.718127 
L 355.696929 131.476884 
L 355.761032 131.354258 
L 355.953343 129.202324 
L 356.017447 127.222646 
L 356.08155 128.323505 
L 356.145654 127.381693 
L 356.209757 128.000323 
L 356.466171 126.061274 
L 356.530275 127.386412 
L 356.850793 127.851068 
L 356.979 129.555904 
L 357.363621 124.580589 
L 357.491828 126.825687 
L 357.555932 125.879085 
L 357.876449 124.485101 
L 357.940553 126.128617 
L 358.004657 124.792383 
L 358.196967 125.466948 
L 358.261071 125.006571 
L 358.325174 122.323077 
L 358.389278 122.928358 
L 358.709796 119.975024 
L 358.773899 121.131379 
L 358.838003 125.777135 
L 358.902106 121.562165 
L 359.094417 122.389542 
L 359.15852 122.245729 
L 359.543142 116.246832 
L 359.607245 116.514207 
L 359.671349 116.238273 
L 359.799556 115.002019 
L 359.991866 115.54904 
L 360.120074 117.181162 
L 360.440591 124.971086 
L 360.504695 123.158079 
L 360.632902 125.955271 
L 360.889316 121.255096 
L 361.017523 128.821762 
L 361.14573 125.543644 
L 361.338041 123.868285 
L 361.402144 124.37727 
L 361.914973 115.75097 
L 362.04318 118.333535 
L 362.235491 118.87758 
L 362.363698 116.862047 
L 362.491905 119.634142 
L 362.748319 125.477407 
L 362.876526 122.281938 
L 362.94063 122.243263 
L 363.261147 124.393454 
L 363.325251 123.890194 
L 363.389354 120.996281 
L 363.581665 121.519055 
L 363.645769 122.101123 
L 363.709872 119.865237 
L 363.773976 120.133051 
L 364.094493 124.090155 
L 364.158597 126.058595 
L 364.2227 125.058737 
L 364.479115 114.849859 
L 364.607322 112.275713 
L 364.671425 113.511017 
L 364.735529 111.597009 
L 364.991943 112.236174 
L 365.184254 107.853655 
L 365.376564 107.843564 
L 365.440668 108.067262 
L 365.568875 107.462563 
L 365.632978 106.477655 
L 365.825289 106.242719 
L 366.0176 102.452853 
L 366.081703 104.097744 
L 366.274014 104.0323 
L 366.338117 107.451098 
L 366.402221 105.228136 
L 366.466325 106.373678 
L 366.530428 106.263906 
L 366.722739 104.89298 
L 366.979153 96.957571 
L 367.171464 96.59305 
L 367.299671 94.944376 
L 367.427878 89.205088 
L 367.620188 87.027036 
L 367.812499 82.376193 
L 367.876603 83.826338 
L 368.068913 84.158292 
L 368.133017 81.760822 
L 368.19712 82.971383 
L 368.325327 81.145607 
L 368.645845 87.936551 
L 368.774052 82.269027 
L 369.030466 75.042663 
L 369.09457 76.012832 
L 369.158674 76.363138 
L 369.222777 78.93686 
L 369.415088 79.381421 
L 369.543295 75.222245 
L 369.607398 75.496648 
L 369.671502 75.338338 
L 369.927916 74.266431 
L 369.99202 74.386152 
L 370.056123 75.639015 
L 370.120227 81.650171 
L 370.312537 84.336867 
L 370.376641 91.853677 
L 370.440744 87.357615 
L 370.504848 80.714396 
L 370.568952 81.533936 
L 370.953573 80.083351 
L 371.017676 79.127183 
L 371.338194 83.177678 
L 371.402298 82.900284 
L 371.466401 82.675637 
L 371.658712 83.470519 
L 371.786919 86.087917 
L 371.851022 83.475096 
L 372.17154 79.516957 
L 372.235644 81.931844 
L 372.299747 80.852469 
L 372.363851 82.02668 
L 372.556161 81.224911 
L 372.812576 68.389721 
L 373.133093 66.088023 
L 373.2613 60.168799 
L 373.581818 49.999091 
L 373.581818 49.999091 
" style="fill:none;stroke:#1c6bf3;stroke-linecap:square;stroke-width:2;"/>
   </g>
   <g id="patch_3">
    <path d="M 54 283.5 
L 54 38.88 
" style="fill:none;stroke:#000000;stroke-linecap:square;stroke-linejoin:miter;stroke-width:0.8;"/>
   </g>
   <g id="patch_4">
    <path d="M 388.8 283.5 
L 388.8 38.88 
" style="fill:none;stroke:#000000;stroke-linecap:square;stroke-linejoin:miter;stroke-width:0.8;"/>
   </g>
   <g id="patch_5">
    <path d="M 54 283.5 
L 388.8 283.5 
" style="fill:none;stroke:#000000;stroke-linecap:square;stroke-linejoin:miter;stroke-width:0.8;"/>
   </g>
   <g id="patch_6">
    <path d="M 54 38.88 
L 388.8 38.88 
" style="fill:none;stroke:#000000;stroke-linecap:square;stroke-linejoin:miter;stroke-width:0.8;"/>
   </g>
   <g id="legend_1">
    <g id="patch_7">
     <path d="M 61 60.817178 
L 230.207001 60.817178 
Q 232.207001 60.817178 232.207001 58.817178 
L 232.207001 45.88 
Q 232.207001 43.88 230.207001 43.88 
L 61 43.88 
Q 59 43.88 59 45.88 
L 59 58.817178 
Q 59 60.817178 61 60.817178 
z
" style="fill:#ffffff;opacity:0.8;stroke:#cccccc;stroke-linejoin:miter;stroke-width:0.24;"/>
    </g>
    <g id="line2d_16">
     <path d="M 63 51.38 
L 83 51.38 
" style="fill:none;stroke:#1c6bf3;stroke-linecap:square;stroke-width:2;"/>
    </g>
    <g id="line2d_17"/>
    <g id="text_17">
     <!-- \textbf{Cierre diario Indice Merval} -->
     <defs>
      <path d="M 74.90625 66.4375 
C 74.90625 68.71875 74.90625 69.015625 72.703125 69.015625 
L 65.203125 61.859375 
C 59.59375 66.609375 52.90625 69 45.5 69 
C 21.59375 69 6.203125 54.640625 6.203125 33.859375 
C 6.203125 13.46875 21.09375 -1.265625 45.59375 -1.265625 
C 63.40625 -1.265625 74.90625 10.796875 74.90625 22.484375 
C 74.90625 24.171875 74.296875 24.171875 72.796875 24.171875 
C 71.796875 24.171875 70.796875 24.171875 70.703125 23.1875 
C 69.796875 8.15625 56.90625 3 47.90625 3 
C 41.40625 3 32.59375 4.796875 27 11.015625 
C 23.5 14.78125 20.296875 20.203125 20.296875 33.859375 
C 20.296875 43.5625 21.796875 50.78125 26.5 56.3125 
C 32.90625 63.734375 42.90625 64.734375 47.703125 64.734375 
C 55.203125 64.734375 67.296875 60.5625 70.296875 43.15625 
C 70.5 42.265625 71.40625 42.265625 72.59375 42.265625 
C 74.90625 42.265625 74.90625 42.46875 74.90625 44.84375 
z
" id="CMBX12-67"/>
      <path d="M 22.296875 61.84375 
C 22.296875 65.921875 19 69 15.09375 69 
C 11 69 7.90625 65.625 7.90625 61.84375 
C 7.90625 58.0625 11 54.6875 15.09375 54.6875 
C 19 54.6875 22.296875 57.765625 22.296875 61.84375 
z
M 4.703125 44 
L 4.703125 39.328125 
C 10.59375 39.328125 11.296875 39.328125 11.296875 35.46875 
L 11.296875 4.0625 
L 4.40625 4.0625 
L 4.40625 -0.203125 
C 6.703125 0 13.59375 0 16.296875 0 
C 19.09375 0 25.5 0 27.90625 -0.203125 
L 27.90625 4.0625 
L 21.703125 4.0625 
L 21.703125 44 
z
" id="CMBX12-105"/>
      <path d="M 45.203125 22 
C 47.5 22 48.09375 22 48.09375 24.484375 
C 48.09375 27.46875 47.40625 34.890625 42.796875 39.5625 
C 38.59375 43.71875 33 45 27.203125 45 
C 11.59375 45 3.09375 34.890625 3.09375 22.40625 
C 3.09375 8.515625 13.40625 -0.5 28.5 -0.5 
C 43.59375 -0.5 48.09375 10 48.09375 11.6875 
C 48.09375 13.171875 46.59375 13.171875 46 13.171875 
C 44.40625 13.171875 44.296875 12.875 43.703125 11.59375 
C 41.09375 5.15625 34.5 3.078125 29.703125 3.078125 
C 15.203125 3.078125 15.09375 16.453125 15.09375 22 
z
M 15.09375 24.890625 
C 15.296875 28.9375 15.40625 32.8125 17.5 36.375 
C 19.40625 39.546875 22.90625 41.71875 27.203125 41.71875 
C 37.90625 41.71875 38.796875 29.828125 38.90625 24.890625 
z
" id="CMBX12-101"/>
      <path d="M 20.796875 22.046875 
C 20.796875 25.296875 21.5 41 33.203125 41 
C 31.796875 39.921875 31.09375 38.25 31.09375 36.5 
C 31.09375 32.484375 34.40625 30.8125 36.90625 30.8125 
C 39.40625 30.8125 42.703125 32.484375 42.703125 36.515625 
C 42.703125 41.53125 37.5 44.28125 32.703125 44.28125 
C 24.796875 44.28125 21.40625 37.515625 20 33.390625 
L 19.90625 33.390625 
L 19.90625 44 
L 3.5 44 
L 3.5 39.328125 
C 9.703125 39.328125 10.40625 39.328125 10.40625 35.46875 
L 10.40625 4.0625 
L 3.5 4.0625 
L 3.5 -0.203125 
C 5.796875 0 13.296875 0 16.09375 0 
C 19 0 27.09375 0 29.5 -0.203125 
L 29.5 4.0625 
L 20.796875 4.0625 
z
" id="CMBX12-114"/>
      <path d="M 34.703125 69 
L 34.703125 64.328125 
C 40.90625 64.328125 41.59375 64.328125 41.59375 60.421875 
L 41.59375 40.234375 
C 39.40625 42.125 35 45 28.09375 45 
C 13.90625 45 3.796875 36.21875 3.796875 22.25 
C 3.796875 7.96875 13.703125 -0.5 27 -0.5 
C 32.5 -0.5 37.203125 1.46875 41.09375 4.859375 
L 41.09375 0 
L 58.90625 0 
L 58.90625 4.5625 
C 52.703125 4.5625 52 4.5625 52 8.4375 
L 52 69 
z
M 41.09375 10.328125 
C 36.90625 4.09375 31.796875 2.78125 28.203125 2.78125 
C 15.796875 2.78125 15.796875 15.453125 15.796875 22.046875 
C 15.796875 26.75 15.796875 31.75 18 35.53125 
C 21.09375 41.125 27 41.71875 29.296875 41.71875 
C 33.40625 41.71875 37.796875 39.9375 41.09375 35.5625 
z
" id="CMBX12-100"/>
      <path d="M 46 29.65625 
C 46 38.8125 38.703125 44.984375 24.59375 44.984375 
C 19 44.984375 7.203125 44.984375 7.203125 36.46875 
C 7.203125 32.203125 10.40625 30.390625 13.09375 30.390625 
C 16.09375 30.390625 19 32.484375 19 36.296875 
C 19 38.203125 18.296875 39.984375 16.59375 41.09375 
C 19.90625 42 22.296875 42 24.203125 42 
C 31 42 35.09375 38.203125 35.09375 29.984375 
L 35.09375 25.984375 
C 19.296875 25.984375 3.40625 21.59375 3.40625 10.5625 
C 3.40625 1.484375 15 -0.5 21.90625 -0.5 
C 29.59375 -0.5 34.5 3.640625 36.5 7.96875 
C 36.5 4.28125 36.5 0 46.59375 0 
L 51.703125 0 
C 53.796875 0 54.59375 0 54.59375 2.265625 
C 54.59375 4.265625 53.703125 4.265625 52.296875 4.265625 
C 46 4.265625 46 5.84375 46 8.15625 
z
M 35.09375 13.78125 
C 35.09375 4.546875 26.703125 2.78125 23.5 2.78125 
C 18.59375 2.78125 14.5 6.09375 14.5 10.71875 
C 14.5 19.890625 25.296875 23 35.09375 23 
z
" id="CMBX12-97"/>
      <path d="M 53 21.796875 
C 53 35.1875 43.796875 45 28.09375 45 
C 11.796875 45 3.09375 34.6875 3.09375 21.796875 
C 3.09375 8.828125 12.296875 -0.5 28 -0.5 
C 44.296875 -0.5 53 9.3125 53 21.796875 
z
M 28.09375 3.078125 
C 15.09375 3.078125 15.09375 14.671875 15.09375 22.796875 
C 15.09375 27.453125 15.09375 32.40625 17 35.984375 
C 19.203125 39.9375 23.703125 41.71875 28 41.71875 
C 33.703125 41.71875 37.296875 39.046875 39 36.28125 
C 41 32.703125 41 27.546875 41 22.796875 
C 41 14.5625 41 3.078125 28.09375 3.078125 
z
" id="CMBX12-111"/>
      <path d="M 27.5 63.828125 
L 38.703125 63.828125 
L 38.703125 68 
C 35.09375 68 25.09375 68 20.90625 68 
C 16.703125 68 6.703125 68 3.09375 68 
L 3.09375 63.828125 
L 14.296875 63.828125 
L 14.296875 4.171875 
L 3.09375 4.171875 
L 3.09375 0 
C 6.703125 0 16.703125 0 20.90625 0 
C 25.09375 0 35.09375 0 38.703125 0 
L 38.703125 4.171875 
L 27.5 4.171875 
z
" id="CMBX12-73"/>
      <path d="M 53.09375 30.0625 
C 53.09375 39.453125 49 44.28125 38 44.28125 
C 30.796875 44.28125 24.59375 40.859375 21.203125 33.484375 
L 21.09375 33.484375 
L 21.09375 44 
L 4.203125 44 
L 4.203125 39.328125 
C 10.40625 39.328125 11.09375 39.328125 11.09375 35.46875 
L 11.09375 4.0625 
L 4.203125 4.0625 
L 4.203125 -0.203125 
C 6.5 0 13.703125 0 16.5 0 
C 19.296875 0 26.59375 0 28.90625 -0.203125 
L 28.90625 4.0625 
L 22 4.0625 
L 22 25.109375 
C 22 35.765625 30 41 36.40625 41 
C 40.09375 41 42.203125 38.640625 42.203125 31.140625 
L 42.203125 4.0625 
L 35.296875 4.0625 
L 35.296875 -0.203125 
C 37.59375 0 44.796875 0 47.59375 0 
C 50.40625 0 57.703125 0 60 -0.203125 
L 60 4.0625 
L 53.09375 4.0625 
z
" id="CMBX12-110"/>
      <path d="M 46.796875 11.765625 
C 46.796875 12.953125 45.703125 12.953125 44.703125 12.953125 
C 43.09375 12.953125 43 12.859375 42.5 11.671875 
C 41.796875 9.765625 39.09375 3.078125 29.90625 3.078125 
C 15.796875 3.078125 15.796875 18.21875 15.796875 22.703125 
C 15.796875 28.578125 15.90625 41.625 29 41.625 
C 29.703125 41.625 35.59375 41.625 35.59375 41.125 
C 35.59375 41 35.5 40.90625 35.296875 40.8125 
C 35 40.515625 33.703125 39 33.703125 36.46875 
C 33.703125 32.25 37.09375 30.53125 39.59375 30.53125 
C 41.703125 30.53125 45.5 31.859375 45.5 36.65625 
C 45.5 45 34 45 28.59375 45 
C 10.796875 45 3.796875 33.515625 3.796875 22.09375 
C 3.796875 8.625 13.296875 -0.5 28 -0.5 
C 43.703125 -0.5 46.796875 11.0625 46.796875 11.765625 
z
" id="CMBX12-99"/>
      <path d="M 53.296875 12.453125 
L 29.296875 65.90625 
C 28.40625 68 27.5 68 25.40625 68 
L 4.09375 68 
L 4.09375 63.71875 
L 14.703125 63.71875 
L 14.703125 6.9375 
C 14.703125 4.75 14.59375 4.65625 12 4.25 
C 10.203125 4.0625 8.203125 4.0625 6.40625 4.0625 
L 4.09375 4.0625 
L 4.09375 -0.203125 
C 6.40625 0 14.203125 0 17 0 
C 19.796875 0 27.703125 0 30 -0.203125 
L 30 4.0625 
L 27.703125 4.0625 
C 25 4.0625 24.796875 4.0625 22.40625 4.359375 
C 19.5 4.765625 19.40625 4.859375 19.40625 7.046875 
L 19.40625 62.53125 
L 19.5 62.53125 
L 46.703125 2.09375 
C 47.203125 1 47.796875 0 49.5 0 
C 51.203125 0 51.796875 1 52.296875 2.09375 
L 80 63.71875 
L 80.09375 63.71875 
L 80.09375 4.0625 
L 69.5 4.0625 
L 69.5 -0.203125 
C 72.203125 0 82.59375 0 86 0 
C 89.40625 0 99.796875 0 102.5 -0.203125 
L 102.5 4.0625 
L 91.90625 4.0625 
L 91.90625 63.71875 
L 102.5 63.71875 
L 102.5 68 
L 81.203125 68 
C 79.09375 68 78.203125 68 77.296875 65.90625 
z
" id="CMBX12-77"/>
      <path d="M 49.5 37.53125 
C 50.203125 39.03125 50.59375 39.828125 56.90625 39.828125 
L 56.90625 44 
C 53.296875 44 53.09375 44 49 44 
C 46.296875 44 46.09375 44 40.40625 44 
L 40.40625 39.828125 
C 43.09375 39.828125 45.296875 39.328125 45.296875 38.625 
C 45.296875 38.53125 45.296875 38.4375 44.796875 37.4375 
L 33.09375 11.921875 
L 20.203125 39.828125 
L 25.703125 39.828125 
L 25.703125 44.09375 
C 23.40625 44 16.40625 44 13.703125 44 
C 10.796875 44 5 44 2.40625 44.09375 
L 2.40625 39.828125 
L 8.703125 39.828125 
L 26.296875 1.890625 
C 27.203125 0 27.40625 -0.5 29.703125 -0.5 
C 31.296875 -0.5 32.09375 -0.296875 33 1.6875 
z
" id="CMBX12-118"/>
      <path d="M 21.703125 69 
L 4.40625 69 
L 4.40625 64.328125 
C 10.59375 64.328125 11.296875 64.328125 11.296875 60.40625 
L 11.296875 4.0625 
L 4.40625 4.0625 
L 4.40625 -0.203125 
C 6.703125 0 13.796875 0 16.5 0 
C 19.203125 0 26.296875 0 28.59375 -0.203125 
L 28.59375 4.0625 
L 21.703125 4.0625 
z
" id="CMBX12-108"/>
     </defs>
     <g transform="translate(91 54.88)scale(0.1 -0.1)">
      <use transform="scale(0.996264)" xlink:href="#CMBX12-67"/>
      <use transform="translate(80.946451 0)scale(0.996264)" xlink:href="#CMBX12-105"/>
      <use transform="translate(112.079701 0)scale(0.996264)" xlink:href="#CMBX12-101"/>
      <use transform="translate(163.218968 0)scale(0.996264)" xlink:href="#CMBX12-114"/>
      <use transform="translate(208.996476 0)scale(0.996264)" xlink:href="#CMBX12-114"/>
      <use transform="translate(254.773983 0)scale(0.996264)" xlink:href="#CMBX12-101"/>
      <use transform="translate(343.27315 0)scale(0.996264)" xlink:href="#CMBX12-100"/>
      <use transform="translate(405.539651 0)scale(0.996264)" xlink:href="#CMBX12-105"/>
      <use transform="translate(436.672901 0)scale(0.996264)" xlink:href="#CMBX12-97"/>
      <use transform="translate(491.156089 0)scale(0.996264)" xlink:href="#CMBX12-114"/>
      <use transform="translate(536.933597 0)scale(0.996264)" xlink:href="#CMBX12-105"/>
      <use transform="translate(568.066847 0)scale(0.996264)" xlink:href="#CMBX12-111"/>
      <use transform="translate(661.466598 0)scale(0.996264)" xlink:href="#CMBX12-73"/>
      <use transform="translate(703.208306 0)scale(0.996264)" xlink:href="#CMBX12-110"/>
      <use transform="translate(765.474806 0)scale(0.996264)" xlink:href="#CMBX12-100"/>
      <use transform="translate(827.741307 0)scale(0.996264)" xlink:href="#CMBX12-105"/>
      <use transform="translate(858.874557 0)scale(0.996264)" xlink:href="#CMBX12-99"/>
      <use transform="translate(908.687758 0)scale(0.996264)" xlink:href="#CMBX12-101"/>
      <use transform="translate(997.186925 0)scale(0.996264)" xlink:href="#CMBX12-77"/>
      <use transform="translate(1103.501351 0)scale(0.996264)" xlink:href="#CMBX12-101"/>
      <use transform="translate(1154.640618 0)scale(0.996264)" xlink:href="#CMBX12-114"/>
      <use transform="translate(1200.418125 0)scale(0.996264)" xlink:href="#CMBX12-118"/>
      <use transform="translate(1253.344651 0)scale(0.996264)" xlink:href="#CMBX12-97"/>
      <use transform="translate(1307.827839 0)scale(0.996264)" xlink:href="#CMBX12-108"/>
     </g>
    </g>
   </g>
  </g>
 </g>
 <defs>
  <clipPath id="p561ca33106">
   <rect height="244.62" width="334.8" x="54" y="38.88"/>
  </clipPath>
 </defs>
</svg>
